<svg xmlns="http://www.w3.org/2000/svg" width="76" height="75" viewBox="0 0 76 75" fill="none">
<path d="M66.1987 40.9043C67.6037 39.7294 68.5 37.958 68.5 35.9794C68.5 32.4508 65.6495 29.5797 62.1457 29.5797C61.3366 29.5797 60.6812 30.2398 60.6812 31.0546C60.6812 31.8694 61.3366 32.5295 62.1457 32.5295C64.0345 32.5295 65.5711 34.0771 65.5711 35.9794C65.5711 37.8817 64.0345 39.4294 62.1457 39.4294H59.9152C59.812 39.4061 59.7054 39.393 59.5955 39.393H59.3731H44.6872C42.7984 39.393 41.2617 37.8454 41.2617 35.9431C41.2617 34.0408 42.7984 32.4931 44.6872 32.4931H47.0399H55.4589C56.2679 32.4931 56.9233 31.8331 56.9233 31.0183C56.9233 30.2035 56.2679 29.5434 55.4589 29.5434H47.0399H44.6874H35.9295C35.8034 28.885 35.6394 28.2763 35.4562 27.7248C34.7715 25.6637 33.7474 24.1076 33.0356 23.1908L39.1344 13.9372C40.0701 12.5175 40.3998 10.811 40.0629 9.13132C39.726 7.45167 38.7641 6.00816 37.3543 5.06576C34.4349 3.11439 30.4837 3.91842 28.5462 6.85837L16.5428 25.0704L7.76407 37.7305C7.5921 37.9785 7.5 38.2732 7.5 38.5753V47.98C7.5 48.7948 8.1554 49.4549 8.96443 49.4549C9.77346 49.4549 10.4289 48.7948 10.4289 47.98V39.0391L18.9536 26.7454C18.9603 26.736 18.9666 26.7264 18.9733 26.7168L30.9863 8.4899C31.4892 7.72667 32.2621 7.20554 33.1627 7.02233C34.063 6.83893 34.9764 7.01714 35.7344 7.52384C36.4922 8.03035 37.0098 8.80897 37.1917 9.71596C37.3738 10.6229 37.1969 11.5426 36.6938 12.3061L29.9808 22.4913C29.5918 23.0817 29.6747 23.8671 30.178 24.3622C30.1939 24.378 31.7955 26.003 32.6783 28.6606C33.8809 32.2816 33.2328 36.026 30.7522 39.7898C30.3051 40.4682 30.4885 41.3836 31.1626 41.8341C31.836 42.2845 32.7451 42.0999 33.1925 41.4208C35.3713 38.1146 36.1295 35.0728 36.18 32.4931H39.3397C38.7037 33.4896 38.3331 34.673 38.3331 35.9431C38.3331 37.9216 39.2294 39.693 40.6344 40.8679C39.2296 42.0428 38.3331 43.8142 38.3331 45.7929C38.3331 48.3828 39.8695 50.6169 42.0719 51.6228C41.1881 52.7222 40.6573 54.1207 40.6573 55.6421C40.6573 57.9482 41.8749 59.9727 43.6963 61.0992C42.6191 62.2464 41.9567 63.7919 41.9567 65.4918C41.9567 66.8077 42.3534 68.032 43.0324 69.0502H17.8576C13.7613 69.0506 10.4289 65.6942 10.4289 61.5688V54.5616C10.4289 53.7468 9.77346 53.0867 8.96443 53.0867C8.1554 53.0867 7.5 53.7466 7.5 54.5612V61.5684C7.5 67.3205 12.1465 72 17.8576 72H43.8275C43.8348 72 43.842 72 43.8489 71.9998L48.7046 71.9276H52.8854C56.389 71.9276 59.2397 69.0568 59.2397 65.5279C59.2397 64.258 58.8691 63.0745 58.2331 62.078H59.3022C62.8059 62.078 65.6566 59.2071 65.6566 55.6783C65.6566 54.2315 65.1768 52.896 64.37 51.8227C66.7797 50.9126 68.4998 48.5695 68.4998 45.8287C68.5 43.8506 67.6035 42.0791 66.1987 40.9043ZM52.8856 68.9781H52.8212C52.7184 68.955 52.612 68.9419 52.5023 68.9419H48.3108C46.422 68.9419 44.8853 67.3943 44.8853 65.492C44.8853 63.5897 46.422 62.042 48.3108 62.042H48.3752C48.478 62.0651 48.5844 62.0782 48.6941 62.0782H49.6184H52.8854C54.7744 62.0782 56.3111 63.6258 56.3111 65.5281C56.3111 67.4304 54.7744 68.9781 52.8856 68.9781ZM59.3026 59.1284H57.0144C56.9116 59.1053 56.8052 59.0923 56.6955 59.0923H52.5025H48.311H47.0115C45.1227 59.0923 43.586 57.5446 43.586 55.6423C43.586 53.74 45.1227 52.1924 47.0115 52.1924H47.1284C47.2312 52.2155 47.3376 52.2286 47.4473 52.2286H55.1111H59.3026C61.1914 52.2286 62.7281 53.7762 62.7281 55.6785C62.7281 57.5808 61.1914 59.1284 59.3026 59.1284ZM62.1457 49.279H59.7045C59.6018 49.2559 59.4952 49.2428 59.3855 49.2428H51.203H47.0115H44.6874C42.7986 49.2428 41.2619 47.6952 41.2619 45.7927C41.2619 43.8904 42.7986 42.3428 44.6874 42.3428H46.9178C47.021 42.3661 47.1275 42.3791 47.2375 42.3791H47.4599H62.1459C64.0345 42.3791 65.5711 43.9268 65.5711 45.8291C65.5711 47.7314 64.0343 49.279 62.1457 49.279Z" fill="#0A0909" stroke="#0A0909" stroke-width="0.1"/>
</svg>