<svg xmlns="http://www.w3.org/2000/svg" width="40" height="40" viewBox="0 0 40 40" fill="none">
<g clip-path="url(#clip0_189_7607)">
<path d="M20.6664 33.3353H19.3335V34.6683H20.6664V33.3353Z" fill="#292929"/>
<path d="M39.3275 34.6682H38.661V10.6754C38.661 9.20313 37.4675 8.00957 35.9952 8.00957H29.797C28.6984 2.59878 23.4214 -0.896838 18.0106 0.201915C14.0764 1.00076 11.0018 4.0755 10.2029 8.00957H4.00478C2.53247 8.00957 1.33891 9.20313 1.33891 10.6754V34.6682H0.672448C0.304392 34.6682 0.00598145 34.9667 0.00598145 35.3347V37.3341C0.00598145 38.8064 1.19954 40 2.67185 40H37.3281C38.8004 40 39.994 38.8064 39.994 37.3341V35.3347C39.994 34.9667 39.6956 34.6682 39.3275 34.6682ZM13.7428 4.01044C15.3773 2.3052 17.6379 1.34224 20 1.34491C24.7795 1.33957 28.6584 5.20975 28.6637 9.98923C28.6664 12.3514 27.7033 14.6118 25.9982 16.2464V12.6748C25.9958 10.7027 24.5559 9.02677 22.6065 8.72736C23.0731 8.14537 23.329 7.42258 23.3323 6.67664C23.3323 4.83627 21.8403 3.34431 20 3.34431C18.1596 3.34431 16.6676 4.83627 16.6676 6.67664C16.671 7.42258 16.9268 8.14537 17.3934 8.72736C15.4441 9.02677 14.0042 10.7027 14.0018 12.6748V16.2464C10.5514 12.9391 10.4354 7.46082 13.7428 4.01044ZM21.9994 13.3413V18.4311C20.6859 18.7537 19.314 18.7537 18.0006 18.4311V13.3413H16.6676V18.0066C16.2035 17.8105 15.7575 17.5742 15.3347 17.3001V12.6748C15.3347 11.2025 16.5283 10.009 18.0006 10.009H21.9994C23.4717 10.009 24.6652 11.2025 24.6652 12.6748V17.2981C24.2425 17.5729 23.7965 17.81 23.3323 18.0066V13.3413H21.9994ZM18.0006 6.67664C18.0006 5.57239 18.8957 4.67724 20 4.67724C21.1042 4.67724 21.9994 5.57239 21.9994 6.67664C21.9994 7.78089 21.1042 8.67604 20 8.67604C18.8957 8.67604 18.0006 7.78089 18.0006 6.67664ZM14.0018 17.9879V18.0066H14.0271C17.5628 20.6725 22.4372 20.6725 25.9729 18.0066H25.9982V17.9879C27.9513 16.5247 29.3024 14.3982 29.797 12.0084H34.6622V30.6694H5.33771V12.0084H10.2029C10.6976 14.3982 12.0486 16.5247 14.0018 17.9879ZM2.67185 10.6754C2.67185 9.93924 3.26859 9.34251 4.00478 9.34251H10.037C10.0223 9.56377 10.003 9.78371 10.003 10.009C10.003 10.2342 10.0223 10.4542 10.037 10.6754H4.67125C4.30319 10.6754 4.00478 10.9739 4.00478 11.3419V31.3359C4.00478 31.704 4.30319 32.0024 4.67125 32.0024H35.3287C35.6968 32.0024 35.9952 31.704 35.9952 31.3359V11.3419C35.9952 10.9739 35.6968 10.6754 35.3287 10.6754H29.963C29.9777 10.4542 29.997 10.2342 29.997 10.009C29.997 9.78371 29.9777 9.56377 29.963 9.34251H35.9952C36.7314 9.34251 37.3281 9.93924 37.3281 10.6754V34.6682H25.9982C25.8216 34.6681 25.652 34.7381 25.527 34.8629L24.3893 36.0012H15.6106L14.473 34.8629C14.3479 34.7381 14.1784 34.6681 14.0018 34.6682H2.67185V10.6754ZM38.661 37.3341C38.661 38.0703 38.0643 38.667 37.3281 38.667H2.67185C1.93565 38.667 1.33891 38.0703 1.33891 37.3341V36.0012H13.7259L14.8635 37.1388C14.9885 37.2638 15.1579 37.3341 15.3347 37.3341H24.6652C24.842 37.3341 25.0115 37.2638 25.1364 37.1388L26.2741 36.0012H38.661V37.3341Z" fill="#292929"/>
<path d="M30.6634 21.3389H9.33651C8.96845 21.3389 8.67004 21.6373 8.67004 22.0053V27.3371C8.67004 27.7051 8.96845 28.0035 9.33651 28.0035H30.6634C31.0315 28.0035 31.3299 27.7051 31.3299 27.3371V22.0053C31.3299 21.6373 31.0315 21.3389 30.6634 21.3389ZM29.997 26.6706H10.003V22.6718H29.997V26.6706Z" fill="#292929"/>
<path d="M20.6664 24.0048H19.3335V25.3377H20.6664V24.0048Z" fill="#292929"/>
<path d="M23.3323 24.0048H21.9994V25.3377H23.3323V24.0048Z" fill="#292929"/>
<path d="M25.9982 24.0048H24.6653V25.3377H25.9982V24.0048Z" fill="#292929"/>
<path d="M28.664 24.0048H27.3311V25.3377H28.664V24.0048Z" fill="#292929"/>
<path d="M12.6689 24.0048H11.3359V25.3377H12.6689V24.0048Z" fill="#292929"/>
<path d="M15.3348 24.0048H14.0018V25.3377H15.3348V24.0048Z" fill="#292929"/>
<path d="M18.0007 24.0048H16.6677V25.3377H18.0007V24.0048Z" fill="#292929"/>
</g>
<defs>
<clipPath id="clip0_189_7607">
<rect width="40" height="40" fill="white"/>
</clipPath>
</defs>
</svg>