<svg xmlns="http://www.w3.org/2000/svg" width="41" height="40" viewBox="0 0 41 40" fill="none">
<g clip-path="url(#clip0_189_7598)">
<path d="M39.3052 33.9998L29.9004 24.595C29.5953 24.2899 29.1006 24.2901 28.7955 24.595L28.5023 24.8881L26.1359 22.5217C27.2065 21.0278 27.9883 19.3332 28.4149 17.5399C28.5148 17.1202 28.2555 16.6989 27.8357 16.599C27.4156 16.499 26.9946 16.7585 26.8948 17.1783C25.5323 22.9053 20.463 26.9051 14.5672 26.9051C7.58025 26.9052 1.89588 21.2208 1.89588 14.2339C1.89588 7.24694 7.58025 1.56256 14.5673 1.56256C20.463 1.56256 25.5323 5.56242 26.8949 11.2894C26.9947 11.7092 27.4159 11.9681 27.8358 11.8687C28.2555 11.7688 28.5149 11.3476 28.415 10.9278C27.6866 7.8661 25.9246 5.09115 23.4535 3.11396C20.9437 1.1059 17.7879 0 14.5673 0C6.71865 0 0.333313 6.38534 0.333313 14.2339C0.333313 22.0825 6.71865 28.4678 14.5672 28.4678C17.4939 28.4678 20.3669 27.5544 22.7505 25.8807L25.1303 28.2601L24.9283 28.4622C24.7818 28.6088 24.6995 28.8074 24.6995 29.0146C24.6995 29.2218 24.7818 29.4205 24.9283 29.5671L34.3332 38.9719C35.0186 39.6573 35.9189 40 36.8193 40C37.7196 40 38.6199 39.6573 39.3053 38.9719C40.676 37.6011 40.676 35.3707 39.3052 33.9998ZM23.9851 24.9054C24.3966 24.5415 24.7864 24.155 25.152 23.7476L27.3974 25.993L26.2354 27.155L23.9851 24.9054ZM38.2003 37.867C37.8314 38.2359 37.3409 38.4391 36.8193 38.4391C36.2976 38.4391 35.807 38.2359 35.4381 37.867L26.5856 29.0145L29.3479 26.2523L38.2003 35.1048C38.9618 35.8662 38.9618 37.1055 38.2003 37.867Z" fill="#292929"/>
<path d="M28.0197 15.0151C28.4512 15.0151 28.801 14.6654 28.801 14.2339C28.801 13.8024 28.4512 13.4526 28.0197 13.4526C27.5882 13.4526 27.2385 13.8024 27.2385 14.2339C27.2385 14.6654 27.5882 15.0151 28.0197 15.0151Z" fill="#292929"/>
<path d="M14.5675 3.125C8.44206 3.125 3.4585 8.10849 3.4585 14.234C3.4585 15.7507 3.76062 17.2225 4.35642 18.6084C4.8148 19.6745 5.43561 20.6595 6.20166 21.536C8.31635 23.9549 11.3656 25.3423 14.5675 25.3423C17.7695 25.3423 20.8184 23.9547 22.9327 21.5352C23.6992 20.6581 24.32 19.6735 24.7779 18.6084C25.3737 17.2225 25.6758 15.7507 25.6758 14.234C25.6759 8.10849 20.6927 3.125 14.5675 3.125ZM14.5675 23.7798C12.0579 23.7798 9.65719 22.7867 7.87501 21.0339C9.68 19.3343 12.0805 18.3717 14.5675 18.3717C17.0539 18.3717 19.4542 19.3341 21.2593 21.0334C19.4775 22.7866 17.0771 23.7798 14.5675 23.7798ZM22.2808 19.8489C20.1929 17.9073 17.4295 16.8091 14.5675 16.8091C11.7049 16.8091 8.94122 17.9076 6.85356 19.8494C6.53964 19.4186 6.2622 18.9635 6.02415 18.487C7.6525 17.0438 9.61492 16.035 11.7338 15.5597C11.9731 15.5059 12.1734 15.3429 12.2745 15.1194C12.3756 14.8959 12.3659 14.6379 12.2483 14.4227L10.9779 12.0968C10.9172 11.9856 10.9547 11.8905 10.9823 11.8439C11.01 11.7972 11.0752 11.719 11.2017 11.719H17.9324C18.0593 11.719 18.1246 11.7975 18.1524 11.8443C18.18 11.8908 18.2172 11.9855 18.1563 12.0968L16.8859 14.4227C16.7683 14.6379 16.7587 14.896 16.8597 15.1194C16.9608 15.3428 17.1611 15.5059 17.4005 15.5597C19.5194 16.035 21.4817 17.0438 23.1101 18.487C22.8723 18.9631 22.5948 19.418 22.2808 19.8489ZM12.3578 10.1565C12.6804 9.2472 13.5488 8.59397 14.5673 8.59397C15.5859 8.59397 16.4543 9.2472 16.7768 10.1565H12.3578ZM23.7185 16.9526C22.2461 15.7461 20.5536 14.8424 18.7359 14.2955L19.5272 12.8467C19.8386 12.278 19.8272 11.6055 19.4967 11.0477C19.2491 10.6298 18.8589 10.3381 18.4061 10.2179C18.0671 8.40678 16.4753 7.03141 14.5673 7.03141C12.6593 7.03141 11.0675 8.40678 10.7286 10.2179C10.2761 10.338 9.88618 10.6294 9.63851 11.0467C9.3078 11.6044 9.29592 12.277 9.60687 12.846L10.3985 14.2955C8.58082 14.8424 6.8884 15.746 5.41584 16.9526C5.15403 16.0748 5.02106 15.1645 5.02106 14.234C5.02106 8.97001 9.30358 4.68756 14.5675 4.68756C19.831 4.68756 24.1132 8.97001 24.1132 14.234C24.1133 15.1645 23.9804 16.0747 23.7185 16.9526Z" fill="#292929"/>
</g>
<defs>
<clipPath id="clip0_189_7598">
<rect width="40" height="40" fill="white" transform="translate(0.333313)"/>
</clipPath>
</defs>
</svg>