<svg xmlns="http://www.w3.org/2000/svg" width="40" height="40" viewBox="0 0 40 40" fill="none">
<g clip-path="url(#clip0_189_7570)">
<path d="M39.7633 18.254C39.7621 18.2467 39.7576 18.2404 39.7565 18.2331C39.7565 18.219 39.7565 18.2043 39.7514 18.1902C39.3132 16.5822 38.6812 15.0334 37.8692 13.5779C37.8659 13.5712 37.8613 13.5644 37.8574 13.5576L37.8523 13.5491C35.9315 10.1772 33.6373 7.03207 31.0131 4.17321L31.9667 2.98115C32.1276 2.77873 32.1307 2.49285 31.974 2.28705L30.2783 0.0261819C30.1716 -0.116161 30.004 -0.199951 29.8261 -0.199951H24.1739C23.996 -0.199951 23.8285 -0.116161 23.7217 0.0261157L22.0261 2.28698C22.0116 2.31043 21.9989 2.335 21.9882 2.36044C21.9749 2.38243 21.9629 2.40528 21.9525 2.42886C21.9326 2.48331 21.9211 2.54047 21.9186 2.59843C21.9186 2.60803 21.913 2.61598 21.913 2.62612V2.63062C21.9139 2.69924 21.9275 2.76707 21.9531 2.83072C21.963 2.85165 21.9743 2.87186 21.9871 2.8912C22.0006 2.922 22.0169 2.95147 22.0357 2.97936L22.9892 4.17143C20.3646 7.02968 18.0697 10.174 16.1478 13.5451V13.5479C16.1422 13.5575 16.1365 13.5666 16.132 13.5756C15.32 15.0311 14.688 16.5799 14.2498 18.1878C14.2498 18.198 14.2498 18.2093 14.2464 18.22C14.2447 18.2241 14.2432 18.2282 14.2419 18.2325C14.0807 19.0496 13.9997 19.8804 14 20.7133C13.9999 27.893 19.8202 33.7134 27 33.7134C34.1798 33.7134 40.0001 27.893 40.0001 20.7133C40.0007 19.8878 39.9214 19.0642 39.7633 18.254ZM24.4565 0.930516H29.5435L30.8068 2.61486L27 7.37405L23.6539 3.19138H28.6957C29.0078 3.19138 29.2609 2.93836 29.2609 2.62618C29.2609 2.31401 29.0078 2.06098 28.6957 2.06098H23.6087L24.4565 0.930516ZM27 9.97405C24.9221 9.97339 22.8891 10.5781 21.1494 11.7144C21.6275 11.0197 22.1436 10.3058 22.706 9.57047C25.4866 8.60136 28.5133 8.60136 31.294 9.57047C31.8592 10.3052 32.3725 11.0197 32.8507 11.7144C31.1109 10.5781 29.0779 9.97339 27 9.97405ZM35.5032 16.2559L35.506 16.261L35.5139 16.2786C35.8091 16.9012 36.0616 17.5433 36.2696 18.2003L36.3109 18.3365C36.5102 19.113 36.6103 19.9117 36.6087 20.7133C36.6087 26.0201 32.3067 30.3221 26.9999 30.3221C21.6932 30.3221 17.3911 26.0201 17.3911 20.7133C17.3895 19.9103 17.4898 19.1103 17.6896 18.3326L17.7286 18.2037C17.9377 17.5443 18.1911 16.8999 18.4872 16.2746L18.4917 16.265L18.4968 16.256C20.1509 13.0895 23.4274 11.1045 26.9999 11.1045C30.5724 11.1045 33.8491 13.0894 35.5032 16.2559ZM23.902 8.05854C24.2626 7.61595 24.6368 7.16719 25.0246 6.71446L25.8622 7.76068C25.2025 7.81314 24.5475 7.91269 23.902 8.05854ZM28.1378 7.76061L28.9743 6.71552C29.361 7.16772 29.738 7.61595 30.0986 8.05848C29.4528 7.91295 28.7976 7.8134 28.1378 7.76061ZM27 32.5829C20.4476 32.5754 15.1378 27.2656 15.1303 20.7133C15.1298 19.9514 15.2038 19.1913 15.3514 18.4439C15.7657 16.937 16.3603 15.4856 17.1222 14.1211C17.129 14.1098 17.1352 14.0979 17.1414 14.0866C18.989 10.8462 21.1913 7.82141 23.7076 5.06788L24.3056 5.8151C23.4109 6.85853 22.5738 7.88441 21.8186 8.8673C20.1181 11.0127 18.6565 13.3371 17.4596 15.7992C17.1405 16.4737 16.8678 17.1692 16.6435 17.8809L16.6265 17.9374C16.614 17.9792 16.6022 18.0182 16.5937 18.0505C16.3702 18.9204 16.2584 19.8151 16.2608 20.7133C16.2608 26.6444 21.0689 31.4525 27 31.4525C32.9311 31.4525 37.7392 26.6443 37.7392 20.7133C37.7412 19.8157 37.6289 18.9215 37.4052 18.0522C37.3961 18.016 37.3842 17.977 37.3719 17.9352L37.3549 17.8787L37.352 17.8708C37.1289 17.1634 36.8577 16.472 36.5404 15.8015C35.3432 13.338 33.881 11.0122 32.1797 8.86564C31.4268 7.88215 30.5902 6.85628 29.6927 5.81344L30.2924 5.06794C32.8085 7.82148 35.0106 10.8463 36.858 14.0866C36.8642 14.098 36.8704 14.1098 36.8772 14.1212C37.6369 15.4823 38.2306 16.9296 38.6458 18.4321V18.4361V18.444C38.7943 19.1914 38.8692 19.9515 38.8696 20.7134C38.8622 27.2656 33.5524 32.5754 27 32.5829Z" fill="#292929"/>
<g clip-path="url(#clip1_189_7570)">
<mask id="path-2-inside-1_189_7570" fill="white">
<path d="M16.7756 23.083C16.6648 22.9722 16.4857 22.9722 16.3749 23.083L15.3246 24.1333H8.72749L0.43405 32.495C0.245344 32.6838 0.141357 32.9351 0.141357 33.202C0.141357 33.4689 0.245344 33.7202 0.43405 33.9089L6.23294 39.7078C6.4276 39.9025 6.68289 40 6.93875 40C7.19574 40 7.45273 39.9016 7.64966 39.705L15.7252 31.4113V24.534L16.7756 23.4836C16.8863 23.3728 16.8863 23.1938 16.7756 23.083ZM15.1585 31.1812L7.24618 39.3072C7.0773 39.476 6.80246 39.476 6.63359 39.3072L0.834697 33.5083C0.665825 33.3394 0.665825 33.0646 0.835547 32.8948L4.89967 28.7974L8.9638 24.7H14.7579L13.3885 26.0694C13.1644 25.9209 12.8966 25.8334 12.6084 25.8334C11.8273 25.8334 11.1917 26.4689 11.1917 27.2501C11.1917 28.0313 11.8273 28.6668 12.6084 28.6668C13.3896 28.6668 14.0252 28.0313 14.0252 27.2501C14.0252 26.9619 13.9376 26.6942 13.7891 26.47L15.1585 25.1007V31.1812ZM13.4585 27.2501C13.4585 27.7187 13.0771 28.1001 12.6084 28.1001C12.1398 28.1001 11.7584 27.7187 11.7584 27.2501C11.7584 26.7814 12.1398 26.4001 12.6084 26.4001C12.7393 26.4001 12.8617 26.4324 12.9725 26.4853L12.4081 27.0498C12.2973 27.1606 12.2973 27.3396 12.4081 27.4504C12.4634 27.5057 12.5359 27.5334 12.6084 27.5334C12.681 27.5334 12.7535 27.5057 12.8088 27.4504L13.3732 26.886C13.4264 26.9968 13.4585 27.1192 13.4585 27.2501Z"/>
<path d="M15.1585 31.1812L7.24618 39.3072C7.0773 39.476 6.80246 39.476 6.63359 39.3072L0.834697 33.5083C0.665825 33.3394 0.665825 33.0646 0.835547 32.8948L4.89967 28.7974L8.9638 24.7H14.7579L13.3885 26.0694C13.1644 25.9209 12.8966 25.8334 12.6084 25.8334C11.8273 25.8334 11.1917 26.4689 11.1917 27.2501C11.1917 28.0313 11.8273 28.6668 12.6084 28.6668C13.3896 28.6668 14.0252 28.0313 14.0252 27.2501C14.0252 26.9619 13.9376 26.6942 13.7891 26.47L15.1585 25.1007V31.1812Z"/>
</mask>
<path d="M16.7756 23.083C16.6648 22.9722 16.4857 22.9722 16.3749 23.083L15.3246 24.1333H8.72749L0.43405 32.495C0.245344 32.6838 0.141357 32.9351 0.141357 33.202C0.141357 33.4689 0.245344 33.7202 0.43405 33.9089L6.23294 39.7078C6.4276 39.9025 6.68289 40 6.93875 40C7.19574 40 7.45273 39.9016 7.64966 39.705L15.7252 31.4113V24.534L16.7756 23.4836C16.8863 23.3728 16.8863 23.1938 16.7756 23.083ZM15.1585 31.1812L7.24618 39.3072C7.0773 39.476 6.80246 39.476 6.63359 39.3072L0.834697 33.5083C0.665825 33.3394 0.665825 33.0646 0.835547 32.8948L4.89967 28.7974L8.9638 24.7H14.7579L13.3885 26.0694C13.1644 25.9209 12.8966 25.8334 12.6084 25.8334C11.8273 25.8334 11.1917 26.4689 11.1917 27.2501C11.1917 28.0313 11.8273 28.6668 12.6084 28.6668C13.3896 28.6668 14.0252 28.0313 14.0252 27.2501C14.0252 26.9619 13.9376 26.6942 13.7891 26.47L15.1585 25.1007V31.1812ZM13.4585 27.2501C13.4585 27.7187 13.0771 28.1001 12.6084 28.1001C12.1398 28.1001 11.7584 27.7187 11.7584 27.2501C11.7584 26.7814 12.1398 26.4001 12.6084 26.4001C12.7393 26.4001 12.8617 26.4324 12.9725 26.4853L12.4081 27.0498C12.2973 27.1606 12.2973 27.3396 12.4081 27.4504C12.4634 27.5057 12.5359 27.5334 12.6084 27.5334C12.681 27.5334 12.7535 27.5057 12.8088 27.4504L13.3732 26.886C13.4264 26.9968 13.4585 27.1192 13.4585 27.2501Z" fill="#292929"/>
<path d="M15.1585 31.1812L7.24618 39.3072C7.0773 39.476 6.80246 39.476 6.63359 39.3072L0.834697 33.5083C0.665825 33.3394 0.665825 33.0646 0.835547 32.8948L4.89967 28.7974L8.9638 24.7H14.7579L13.3885 26.0694C13.1644 25.9209 12.8966 25.8334 12.6084 25.8334C11.8273 25.8334 11.1917 26.4689 11.1917 27.2501C11.1917 28.0313 11.8273 28.6668 12.6084 28.6668C13.3896 28.6668 14.0252 28.0313 14.0252 27.2501C14.0252 26.9619 13.9376 26.6942 13.7891 26.47L15.1585 25.1007V31.1812Z" fill="#292929"/>
<path d="M15.1585 31.1812L50.9816 66.0625L65.1585 51.5028V31.1812H15.1585ZM7.24618 39.3072L42.6015 74.6625L42.837 74.427L43.0693 74.1885L7.24618 39.3072ZM6.63359 39.3072L-28.7218 74.6625L-28.7218 74.6625L6.63359 39.3072ZM0.834697 33.5083L36.19 -1.84705V-1.84706L0.834697 33.5083ZM0.835547 32.8948L36.1909 68.2502L36.263 68.1781L36.3348 68.1057L0.835547 32.8948ZM8.9638 24.7V-25.3H-11.8665L-26.5355 -10.5108L8.9638 24.7ZM14.7579 24.7L50.1132 60.0553L135.468 -25.3H14.7579V24.7ZM13.3885 26.0694L-14.2248 67.7528L19.8457 90.3229L48.7438 61.4247L13.3885 26.0694ZM13.7891 26.47L-21.5662 -8.88529L-50.4644 20.0129L-27.8943 54.0833L13.7891 26.47ZM15.1585 25.1007H65.1585V-95.6101L-20.1968 -10.2547L15.1585 25.1007ZM4.89967 28.7974L40.3989 64.0082L4.89967 28.7974ZM-20.6646 -3.7001L-28.5769 4.42589L43.0693 74.1885L50.9816 66.0625L-20.6646 -3.7001ZM-28.1092 3.95184C-8.75182 -15.4055 22.6316 -15.4055 41.9889 3.95184L-28.7218 74.6625C-9.02666 94.3576 22.9064 94.3576 42.6015 74.6625L-28.1092 3.95184ZM41.9889 3.95184L36.19 -1.84705L-34.5206 68.8636L-28.7218 74.6625L41.9889 3.95184ZM36.19 -1.84706C55.6111 17.574 55.4836 48.9575 36.1909 68.2502L-34.5198 -2.46049C-54.1519 17.1716 -54.2795 49.1048 -34.5206 68.8636L36.19 -1.84706ZM8.9638 74.7H14.7579V-25.3H8.9638V74.7ZM-20.5975 -10.6553L-21.9669 -9.28592L48.7438 61.4247L50.1132 60.0553L-20.5975 -10.6553ZM41.0018 -15.614C32.9999 -20.9148 23.1988 -24.1666 12.6084 -24.1666V75.8334C2.59443 75.8334 -6.67123 72.7567 -14.2248 67.7528L41.0018 -15.614ZM12.6084 -24.1666C-15.787 -24.1666 -38.8083 -1.14527 -38.8083 27.2501H61.1917C61.1917 54.0831 39.4416 75.8334 12.6084 75.8334V-24.1666ZM-38.8083 27.2501C-38.8083 55.6455 -15.787 78.6668 12.6084 78.6668V-21.3332C39.4415 -21.3332 61.1917 0.417046 61.1917 27.2501H-38.8083ZM12.6084 78.6668C41.0039 78.6668 64.0252 55.6455 64.0252 27.2501H-35.9748C-35.9748 0.417046 -14.2246 -21.3332 12.6084 -21.3332V78.6668ZM64.0252 27.2501C64.0252 16.6598 60.7734 6.85863 55.4725 -1.14323L-27.8943 54.0833C-32.8982 46.5297 -35.9748 37.264 -35.9748 27.2501H64.0252ZM49.1445 61.8254L50.5139 60.456L-20.1968 -10.2547L-21.5662 -8.88529L49.1445 61.8254ZM-34.8415 25.1007V31.1812H65.1585V25.1007H-34.8415ZM36.3348 68.1057L40.3989 64.0082L-30.5996 -6.41339L-34.6637 -2.31597L36.3348 68.1057ZM40.3989 64.0082L44.4631 59.9108L-26.5355 -10.5108L-30.5996 -6.41339L40.3989 64.0082ZM16.3749 23.083L87.0855 93.7937L87.0856 93.7936L16.3749 23.083ZM15.3246 24.1333V124.133H56.7459L86.0352 94.8441L15.3246 24.1333ZM8.72749 24.1333V-75.8667H-32.9342L-62.2725 -46.2868L8.72749 24.1333ZM0.43405 32.495L71.1447 103.206L71.2897 103.061L71.4341 102.915L0.43405 32.495ZM0.43405 33.9089L71.1447 -36.8017L71.1447 -36.8017L0.43405 33.9089ZM6.23294 39.7078L-64.4777 110.418H-64.4777L6.23294 39.7078ZM7.64966 39.705L78.3094 110.467L78.8064 109.97L79.2964 109.467L7.64966 39.705ZM15.7252 31.4113L87.372 101.173L115.725 72.0541V31.4113H15.7252ZM15.7252 24.534L-54.9855 -46.1767L-84.2748 -16.8874V24.534H15.7252ZM16.7756 23.4836L87.4862 94.1943L87.4862 94.1943L16.7756 23.4836ZM12.9725 26.4853L83.6833 97.1959L183.625 -2.74635L56.1181 -63.7281L12.9725 26.4853ZM12.4081 27.0498L83.1188 97.7604L83.1189 97.7603L12.4081 27.0498ZM12.4081 27.4504L83.1188 -43.2603L12.4081 27.4504ZM12.8088 27.4504L-57.9019 -43.2603L-57.9019 -43.2603L12.8088 27.4504ZM13.3732 26.886L103.497 -16.447L42.3848 -143.547L-57.3375 -43.8247L13.3732 26.886ZM87.4862 -47.6277C48.323 -86.7909 -15.1726 -86.7909 -54.3358 -47.6277L87.0856 93.7936C48.144 132.735 -14.9935 132.735 -53.9351 93.7936L87.4862 -47.6277ZM-54.3357 -47.6278L-55.3861 -46.5774L86.0352 94.8441L87.0855 93.7937L-54.3357 -47.6278ZM15.3246 -75.8667H8.72749V124.133H15.3246V-75.8667ZM-62.2725 -46.2868L-70.5659 -37.9251L71.4341 102.915L79.7275 94.5535L-62.2725 -46.2868ZM-70.2766 -38.2156C-89.2413 -19.2509 -99.8586 6.44508 -99.8586 33.202H100.141C100.141 59.4251 89.732 84.6184 71.1447 103.206L-70.2766 -38.2156ZM-99.8586 33.202C-99.8586 59.9589 -89.2413 85.6549 -70.2766 104.62L71.1447 -36.8017C89.732 -18.2144 100.141 6.9789 100.141 33.202H-99.8586ZM-70.2766 104.62L-64.4777 110.418L76.9436 -31.0028L71.1447 -36.8017L-70.2766 104.62ZM-64.4777 110.418C-44.7636 130.133 -18.7357 140 6.93875 140V-60.0001C32.1015 -60.0001 57.6188 -50.3277 76.9436 -31.0028L-64.4777 110.418ZM6.93875 140C32.7633 140 58.7156 130.032 78.3094 110.467L-63.0101 -31.0566C-43.8101 -50.2289 -18.3718 -60.0001 6.93875 -60.0001V140ZM79.2964 109.467L87.372 101.173L-55.9216 -38.3508L-63.9971 -30.057L79.2964 109.467ZM115.725 31.4113V24.534H-84.2748V31.4113H115.725ZM86.4359 95.2447L87.4862 94.1943L-53.9351 -47.2271L-54.9855 -46.1767L86.4359 95.2447ZM87.4862 94.1943C126.649 55.0311 126.649 -8.46449 87.4862 -47.6277L-53.9351 93.7936C-92.8768 54.852 -92.8768 -8.28542 -53.9351 -47.2271L87.4862 94.1943ZM-86.5415 27.2501C-86.5415 -27.5096 -42.1516 -71.8999 12.6084 -71.8999V128.1C68.3057 128.1 113.458 82.947 113.458 27.2501H-86.5415ZM12.6084 -71.8999C67.3683 -71.8999 111.758 -27.5097 111.758 27.2501H-88.2416C-88.2416 82.9472 -43.0887 128.1 12.6084 128.1V-71.8999ZM111.758 27.2501C111.758 82.0099 67.3683 126.4 12.6084 126.4V-73.5999C-43.0887 -73.5999 -88.2416 -28.447 -88.2416 27.2501H111.758ZM12.6084 126.4C-4.06057 126.4 -18.6061 122.231 -30.173 116.699L56.1181 -63.7281C44.3296 -69.3661 29.5393 -73.5999 12.6084 -73.5999V126.4ZM-57.7382 -44.2252L-58.3027 -43.6608L83.1189 97.7603L83.6833 97.1959L-57.7382 -44.2252ZM-58.3026 -43.6609C-97.4658 -4.49769 -97.4658 58.9979 -58.3026 98.1611L83.1188 -43.2603C122.06 -4.31862 122.06 58.8188 83.1188 97.7604L-58.3026 -43.6609ZM-58.3026 98.1611C-38.7842 117.679 -12.9653 127.533 12.6084 127.533V-72.4666C38.0371 -72.4666 63.7109 -62.6681 83.1188 -43.2603L-58.3026 98.1611ZM12.6084 127.533C38.1818 127.533 64.0009 117.68 83.5194 98.1611L-57.9019 -43.2603C-38.4938 -62.6683 -12.8199 -72.4666 12.6084 -72.4666V127.533ZM83.5194 98.1611L84.0838 97.5967L-57.3375 -43.8247L-57.9019 -43.2603L83.5194 98.1611ZM-76.7503 70.219C-82.4367 58.3926 -86.5415 43.7846 -86.5415 27.2501H113.458C113.458 10.4538 109.29 -4.399 103.497 -16.447L-76.7503 70.219Z" fill="#292929" mask="url(#path-2-inside-1_189_7570)"/>
<path fill-rule="evenodd" clip-rule="evenodd" d="M7.05581 33.6648L5.72853 32.3675L4.53341 33.5901L4.09339 33.16L5.2885 31.9374L4.55273 31.2182L4.9229 30.8395L5.65867 31.5587L6.18395 31.0212L5.44818 30.3021L5.81482 29.927L6.5506 30.6461L9.22638 27.9086L11.0153 29.6572C11.5684 30.1978 11.8625 30.7603 11.8977 31.3448C11.9376 31.9293 11.7226 32.462 11.2525 32.9429C10.7731 33.4334 10.2491 33.6664 9.68051 33.642C9.11432 33.6152 8.54872 33.328 7.98372 32.7804L6.62398 31.4513L6.09869 31.9888L7.42597 33.2861L7.05581 33.6648ZM8.33954 32.3947L6.99062 31.0762L9.29623 28.7174L10.6993 30.0888C11.0842 30.4839 11.2851 30.8965 11.3018 31.3267C11.321 31.7592 11.1544 32.1558 10.8018 32.5165C10.4375 32.8892 10.0401 33.0649 9.60949 33.0436C9.18124 33.02 8.75792 32.8037 8.33954 32.3947Z" fill="white"/>
</g>
</g>
<defs>
<clipPath id="clip0_189_7570">
<rect width="40" height="40" fill="white"/>
</clipPath>
<clipPath id="clip1_189_7570">
<rect width="17" height="17" fill="white" transform="translate(0 23)"/>
</clipPath>
</defs>
</svg>