<svg xmlns="http://www.w3.org/2000/svg" width="41" height="40" viewBox="0 0 41 40" fill="none">
<g clip-path="url(#clip0_189_7642)">
<path d="M40.5037 17.0593L33.8088 8.36241C33.561 8.04076 33.109 7.96141 32.7663 8.17931L28.4438 10.9283H22.8063C22.7333 10.9283 22.6607 10.9439 22.5905 10.9643L18.2195 12.2226L13.6839 10.982L9.2769 8.17931C8.93999 7.96507 8.49626 8.0377 8.24571 8.34837L0.840621 17.5207C0.574508 17.8503 0.618453 18.3316 0.939498 18.6078L4.82072 21.9479L8.30278 26.6403C7.28441 27.7252 7.30424 29.4363 8.36382 30.4962C8.83348 30.9656 9.43071 31.2308 10.045 31.2924C10.0237 31.4316 10.0127 31.5729 10.0127 31.7163C10.0127 32.4567 10.3011 33.1528 10.8244 33.6761C11.3481 34.1998 12.0442 34.4882 12.7846 34.4882C12.7947 34.4882 12.8044 34.4876 12.8142 34.4873C12.8139 34.5062 12.813 34.5248 12.813 34.5438C12.813 35.2841 13.1014 35.9802 13.6247 36.5039C14.1484 37.0273 14.8445 37.3157 15.5849 37.3157C15.7311 37.3157 15.8757 37.3038 16.0176 37.2818C16.0777 37.8982 16.3436 38.4982 16.8147 38.9694C17.3549 39.5099 18.0647 39.78 18.7746 39.78C19.4844 39.78 20.1943 39.5099 20.7347 38.9694L21.1586 38.5455L21.3365 38.689C21.8724 39.2081 22.5682 39.4675 23.264 39.4675C23.9739 39.4675 24.6837 39.1974 25.2239 38.6569C25.7753 38.1055 26.0454 37.3776 26.0341 36.6534C26.758 36.6644 27.4861 36.3946 28.0376 35.8435C28.5884 35.2924 28.8585 34.5651 28.8478 33.8412C29.6019 33.8531 30.3172 33.5635 30.851 33.0298C31.4025 32.4783 31.6725 31.7505 31.6612 31.0263C32.3857 31.0373 33.1133 30.7675 33.6647 30.2161C34.6059 29.2749 34.727 27.8201 34.0291 26.7462L36.5715 21.4215L40.3938 18.1323C40.7097 17.8604 40.7579 17.3892 40.5037 17.0593ZM9.02605 9.87883L12.195 11.8939L5.30138 20.2923L2.53892 17.9147L9.02605 9.87883ZM9.47313 27.6852L10.4296 26.7288C10.4585 26.6998 10.4891 26.6724 10.5202 26.6467C10.7073 26.4941 10.9337 26.4032 11.1736 26.3815C11.1803 26.3809 11.1873 26.3809 11.194 26.3806C11.2282 26.3779 11.2624 26.376 11.2969 26.3763C11.6246 26.3809 11.9292 26.5149 12.155 26.7532C12.5981 27.2217 12.5743 27.9871 12.1019 28.4595L11.1745 29.3869C10.7054 29.8559 9.94218 29.8559 9.47313 29.3869C9.00407 28.9175 9.00407 28.1543 9.47313 27.6852ZM11.9338 32.5668C11.7064 32.3398 11.5813 32.0377 11.5813 31.7163C11.5813 31.395 11.7064 31.0928 11.9338 30.8655L13.7883 29.0109C14.1435 28.6557 14.702 28.5583 15.1561 28.7747C15.6243 28.9978 15.8876 29.5059 15.819 30.0171C15.7823 30.2899 15.6554 30.5469 15.4607 30.7419L13.6354 32.5668C13.4081 32.7942 13.1059 32.9193 12.7846 32.9193C12.4632 32.9193 12.1611 32.7942 11.9338 32.5668ZM14.7341 35.3943C14.5067 35.1672 14.3816 34.8651 14.3816 34.5438C14.3816 34.2224 14.5067 33.9203 14.7341 33.6929L16.5883 31.8384C16.9682 31.4587 17.5777 31.3769 18.0428 31.6476C18.4676 31.8948 18.6901 32.3801 18.6171 32.8635C18.5771 33.1293 18.4508 33.3792 18.2607 33.5693L16.4357 35.3943C16.2084 35.6216 15.9062 35.7468 15.5849 35.7468C15.2635 35.7468 14.9614 35.6216 14.7341 35.3943ZM17.9238 37.8601C17.4547 37.391 17.4547 36.6278 17.9238 36.1587L18.8802 35.2023C18.9092 35.1733 18.9394 35.1462 18.9705 35.1205C18.9714 35.1199 18.972 35.1193 18.9726 35.1187C19.1283 34.9924 19.3111 34.9078 19.5061 34.8709C19.5107 34.8703 19.5152 34.8697 19.5198 34.8691C19.5534 34.863 19.5876 34.8581 19.6218 34.855C19.6355 34.8538 19.6492 34.8538 19.6633 34.8529C19.6913 34.8514 19.7191 34.8495 19.7475 34.8498C20.0749 34.8544 20.3798 34.9881 20.6056 35.2267C20.6334 35.256 20.6593 35.2866 20.6832 35.318C21.0439 35.7895 20.9953 36.4899 20.5477 36.9379L19.6251 37.8604C19.1561 38.3295 18.3928 38.3292 17.9238 37.8601ZM32.5554 29.1067C32.0864 29.5761 31.3231 29.5758 30.8541 29.1067C30.837 29.0897 30.819 29.0738 30.8006 29.0588L25.7573 23.9624C25.4524 23.6545 24.9559 23.652 24.648 23.9569C24.3401 24.2615 24.3376 24.758 24.6422 25.0659L29.7402 30.217C29.7408 30.2176 29.7414 30.2182 29.742 30.2188C30.211 30.6879 30.211 31.4514 29.742 31.9205C29.5146 32.1478 29.2125 32.2729 28.8912 32.2729C28.5695 32.2729 28.2674 32.1478 28.0403 31.9205L24.63 28.4747C24.3254 28.1668 23.8289 28.1644 23.521 28.4689C23.2131 28.7738 23.2106 29.2703 23.5152 29.5782L26.8733 32.9712C26.8904 32.9925 26.9087 33.013 26.9283 33.0325C27.3973 33.5016 27.3973 34.2651 26.9283 34.7342C26.4589 35.2032 25.6954 35.2029 25.2263 34.7339L23.365 32.8531C23.0602 32.5452 22.5636 32.5424 22.2557 32.8473C21.9478 33.1518 21.9454 33.6484 22.2499 33.9563L24.0593 35.7843C24.0764 35.8057 24.0947 35.8264 24.1145 35.8459C24.5836 36.315 24.5836 37.0785 24.1145 37.5476C23.6455 38.017 22.8822 38.0167 22.4132 37.5476C22.3592 37.4936 22.2957 37.4521 22.2353 37.4057C22.184 37.3666 22.1706 37.3395 22.1962 37.2772C22.2222 37.214 22.2609 37.157 22.2869 37.0935C22.3155 37.0227 22.3387 36.9498 22.3613 36.8765C22.4816 36.4889 22.517 36.0721 22.4629 35.6699C22.3592 34.8981 21.9347 34.2017 21.2914 33.761C20.9438 33.5232 20.5416 33.3673 20.1247 33.3087C20.3267 32.4176 20.0841 31.4514 19.453 30.7846C18.9336 30.2359 18.232 29.928 17.4773 29.9176C17.4498 29.9173 17.4223 29.9173 17.3946 29.9176C17.4114 29.1974 17.1495 28.4817 16.653 27.9571C16.1333 27.4084 15.4317 27.1005 14.6773 27.0901C14.453 27.0871 14.2265 27.1109 14.008 27.1612C13.9147 26.5115 13.5872 25.9103 13.0913 25.4803C12.5984 25.0537 11.9786 24.8169 11.3185 24.8077C10.6236 24.7977 9.94096 25.054 9.42491 25.52L6.39299 21.4346L13.6464 12.5979L15.9581 13.2303L12.939 18.5577C12.574 19.202 12.4819 19.9496 12.6793 20.6631C12.8768 21.3769 13.34 21.9708 13.9842 22.3358C14.0245 22.3587 14.0651 22.3804 14.1063 22.4011C14.1094 22.4026 14.1124 22.4042 14.1158 22.4057C14.2241 22.4597 14.3355 22.5061 14.4484 22.5452C14.9742 22.7273 15.5422 22.7472 16.09 22.5958C16.8035 22.3984 17.3973 21.9348 17.7623 21.2909L19.7243 17.8287L23.2274 18.0771L32.5557 27.4051C33.0245 27.8744 33.0245 28.6377 32.5554 29.1067ZM32.8804 25.5115L24.1295 16.7609C24.113 16.7441 24.0956 16.7282 24.0776 16.7132C23.9516 16.6083 23.7953 16.5448 23.6305 16.5332L19.3413 16.2289C19.0447 16.2085 18.7499 16.3663 18.6034 16.6247L16.3976 20.5176C16.2392 20.7971 15.9813 20.9982 15.6716 21.084C15.3621 21.1697 15.0374 21.1294 14.7576 20.9711C14.478 20.8127 14.2769 20.5548 14.1911 20.245C14.1054 19.9353 14.1454 19.6106 14.3041 19.331L17.2487 14.1342L18.4419 13.7909C18.4499 13.7884 18.4575 13.7854 18.4654 13.7829L22.9189 12.4969H28.2997L35.0173 21.0364L32.8804 25.5115ZM36.0448 19.8053L29.8326 11.904L33.0031 9.88768L38.8078 17.4277L36.0448 19.8053Z" fill="#292929"/>
<path d="M24.8997 9.45551C25.1005 9.45551 25.3013 9.37891 25.4545 9.22571L30.8121 3.86804C31.1185 3.56165 31.1185 3.06512 30.8121 2.75873C30.5058 2.45233 30.0092 2.45233 29.7028 2.75873L24.3452 8.1164C24.0388 8.42279 24.0388 8.91931 24.3452 9.22571C24.4984 9.37891 24.6992 9.45551 24.8997 9.45551Z" fill="#292929"/>
<path d="M15.8787 9.22571C16.0319 9.37891 16.2327 9.45551 16.4335 9.45551C16.634 9.45551 16.8349 9.37891 16.9881 9.22571C17.2944 8.91931 17.2944 8.42279 16.9881 8.1164L11.6304 2.75873C11.324 2.45233 10.8275 2.45233 10.5211 2.75873C10.2147 3.06512 10.2147 3.56165 10.5211 3.86804L15.8787 9.22571Z" fill="#292929"/>
<path d="M20.6666 9.45563C21.0997 9.45563 21.4509 9.10437 21.4509 8.67133V4.23743C21.4509 3.80438 21.0997 3.45312 20.6666 3.45312C20.2336 3.45312 19.8823 3.80438 19.8823 4.23743V8.67133C19.8823 9.10437 20.2336 9.45563 20.6666 9.45563Z" fill="#292929"/>
<path d="M19.9427 1.39465C20.0672 1.69647 20.3776 1.89452 20.705 1.87743C21.0285 1.86065 21.3126 1.64214 21.4127 1.33422C21.5132 1.02386 21.4039 0.670159 21.1439 0.472405C20.8787 0.270379 20.5088 0.259087 20.2314 0.442498C19.922 0.646966 19.802 1.05407 19.9427 1.39465Z" fill="#292929"/>
</g>
<defs>
<clipPath id="clip0_189_7642">
<rect width="40" height="40" fill="white" transform="translate(0.666626)"/>
</clipPath>
</defs>
</svg>