<svg xmlns="http://www.w3.org/2000/svg" width="80" height="80" viewBox="0 0 80 80" fill="none">
<g clip-path="url(#clip0_5456_31896)">
<path d="M16.6812 59.1701C16.4602 59.1712 16.2478 59.0844 16.0907 58.9289C15.9337 58.7734 15.8448 58.5618 15.8438 58.3408C15.8427 58.1198 15.9294 57.9074 16.085 57.7504C16.2405 57.5933 16.452 57.5045 16.673 57.5034H16.6812C16.9022 57.5034 17.1141 57.5912 17.2704 57.7475C17.4267 57.9038 17.5145 58.1157 17.5145 58.3368C17.5145 58.5578 17.4267 58.7697 17.2704 58.926C17.1141 59.0823 16.9022 59.1701 16.6812 59.1701Z" fill="#0A0909"/>
<path d="M64.1677 50.3908C63.9843 50.3909 63.806 50.3306 63.6604 50.2191C63.5147 50.1076 63.41 49.9512 63.3623 49.7741C63.3147 49.597 63.3268 49.4091 63.3967 49.2396C63.4667 49.07 63.5906 48.9283 63.7493 48.8364C64.2259 48.5611 64.5984 48.1363 64.809 47.6278C65.0196 47.1193 65.0565 46.5555 64.9141 46.0238C64.7717 45.4922 64.4579 45.0224 64.0213 44.6872C63.5847 44.352 63.0497 44.1703 62.4993 44.1701C62.2783 44.1701 62.0664 44.0823 61.9101 43.926C61.7538 43.7697 61.666 43.5578 61.666 43.3368C61.666 43.1157 61.7538 42.9038 61.9101 42.7475C62.0664 42.5912 62.2783 42.5034 62.4993 42.5034C63.4165 42.5035 64.3079 42.8062 65.0356 43.3645C65.7632 43.9227 66.2863 44.7055 66.5239 45.5913C66.7614 46.4771 66.7001 47.4166 66.3494 48.264C65.9988 49.1114 65.3784 49.8195 64.5843 50.2785C64.4579 50.3522 64.3141 50.3909 64.1677 50.3908Z" fill="#0A0909"/>
<path d="M41.6674 62.5034C41.4817 62.5036 41.3012 62.4418 41.1546 62.3278C41.0081 62.2138 40.9038 62.054 40.8583 61.874C40.8129 61.6939 40.8289 61.5038 40.9038 61.3339C40.9787 61.164 41.1083 61.0239 41.2719 60.936L63.7719 48.8218C63.8683 48.7699 63.974 48.7375 64.0829 48.7264C64.1918 48.7154 64.3018 48.7259 64.4067 48.7574C64.5116 48.7889 64.6092 48.8407 64.694 48.91C64.7788 48.9792 64.8492 49.0645 64.901 49.1609C64.9529 49.2573 64.9852 49.363 64.9962 49.472C65.0072 49.5809 64.9966 49.6909 64.965 49.7958C64.9335 49.9006 64.8816 49.9982 64.8123 50.083C64.743 50.1678 64.6577 50.2381 64.5612 50.2899L42.0612 62.4041C41.9402 62.4694 41.8049 62.5036 41.6674 62.5034Z" fill="#0A0909"/>
<path d="M41.667 62.5035C41.6292 62.5035 41.5914 62.501 41.5539 62.4962L23.2214 59.9962C23.0025 59.9662 22.8045 59.8505 22.6708 59.6746C22.5372 59.4987 22.4788 59.2769 22.5086 59.058C22.5383 58.8391 22.6538 58.6409 22.8296 58.5071C23.0053 58.3732 23.227 58.3146 23.446 58.3441L41.7785 60.8441C41.9878 60.8726 42.1786 60.9794 42.3121 61.1431C42.4457 61.3068 42.5121 61.5151 42.4979 61.7259C42.4838 61.9367 42.3901 62.1342 42.2358 62.2786C42.0816 62.423 41.8783 62.5033 41.667 62.5035Z" fill="#0A0909"/>
<path d="M23.3335 60.835H20.8392C20.6182 60.835 20.4062 60.7472 20.2499 60.5909C20.0937 60.4346 20.0059 60.2227 20.0059 60.0017C20.0059 59.7807 20.0937 59.5687 20.2499 59.4124C20.4062 59.2561 20.6182 59.1683 20.8392 59.1683H22.5002V40.0033H20.8392C20.6182 40.0033 20.4062 39.9155 20.2499 39.7593C20.0937 39.603 20.0059 39.391 20.0059 39.17C20.0059 38.949 20.0937 38.737 20.2499 38.5807C20.4062 38.4245 20.6182 38.3367 20.8392 38.3367H23.3335C23.443 38.3366 23.5514 38.3581 23.6525 38.4C23.7536 38.4418 23.8455 38.5032 23.9229 38.5806C24.0003 38.658 24.0617 38.7499 24.1035 38.851C24.1454 38.9522 24.1669 39.0606 24.1669 39.17V60.0017C24.1669 60.1111 24.1454 60.2195 24.1035 60.3206C24.0617 60.4218 24.0003 60.5137 23.9229 60.5911C23.8455 60.6685 23.7536 60.7298 23.6525 60.7717C23.5514 60.8136 23.443 60.8351 23.3335 60.835Z" fill="#0A0909"/>
<path d="M45.8323 46.6701C45.6222 46.6699 45.4201 46.5903 45.2662 46.4474C45.1123 46.3045 45.0181 46.1088 45.0023 45.8993C44.9866 45.6899 45.0505 45.4823 45.1813 45.318C45.3121 45.1537 45.5001 45.0448 45.7077 45.0132L61.8056 42.562C61.9139 42.5453 62.0244 42.5501 62.1308 42.5761C62.2372 42.6021 62.3375 42.6489 62.4258 42.7137C62.5141 42.7786 62.5888 42.8602 62.6455 42.9539C62.7023 43.0477 62.7399 43.1517 62.7564 43.26C62.7729 43.3683 62.7679 43.4788 62.7416 43.5852C62.7153 43.6915 62.6683 43.7917 62.6032 43.8798C62.5382 43.968 62.4564 44.0425 62.3625 44.099C62.2687 44.1555 62.1646 44.1929 62.0562 44.2092L45.9584 46.6603C45.9167 46.6668 45.8745 46.6701 45.8323 46.6701Z" fill="#0A0909"/>
<path d="M42.4993 50.0033C42.2783 50.0033 42.0664 49.9155 41.9101 49.7592C41.7538 49.6029 41.666 49.391 41.666 49.17C41.666 48.9489 41.7538 48.737 41.9101 48.5807C42.0664 48.4244 42.2783 48.3366 42.4993 48.3366C43.125 48.3365 43.7279 48.1019 44.1891 47.679C44.6502 47.2561 44.936 46.6756 44.99 46.0523C45.0441 45.429 44.8625 44.808 44.4811 44.312C44.0997 43.816 43.5462 43.4811 42.9299 43.3732C42.7121 43.3357 42.5181 43.2132 42.3907 43.0326C42.2633 42.8521 42.2128 42.6283 42.2503 42.4105C42.2879 42.1927 42.4104 41.9988 42.591 41.8714C42.7715 41.7439 42.9953 41.6934 43.2131 41.731C44.2407 41.9097 45.164 42.4674 45.8004 43.2938C46.4369 44.1202 46.7402 45.1553 46.6506 46.1945C46.5609 47.2337 46.0847 48.2015 45.3162 48.9067C44.5476 49.6119 43.5424 50.0032 42.4993 50.0033Z" fill="#0A0909"/>
<path d="M43.0734 43.3856C43.0196 43.3856 42.9659 43.3805 42.9131 43.3701L29.8401 40.8213C29.7325 40.8006 29.63 40.7589 29.5385 40.6985C29.447 40.6381 29.3683 40.5603 29.3069 40.4695C29.2455 40.3786 29.2027 40.2766 29.1808 40.1692C29.1589 40.0617 29.1585 39.951 29.1795 39.8435C29.2005 39.7359 29.2425 39.6335 29.3031 39.5421C29.3637 39.4508 29.4418 39.3723 29.5328 39.3112C29.6238 39.2501 29.726 39.2075 29.8335 39.186C29.9409 39.1644 30.0516 39.1643 30.1592 39.1855L43.2321 41.7344C43.4353 41.7741 43.6164 41.888 43.7402 42.0539C43.864 42.2198 43.9216 42.4259 43.9018 42.632C43.882 42.838 43.7862 43.0294 43.6331 43.1687C43.4799 43.308 43.2804 43.3853 43.0734 43.3856Z" fill="#0A0909"/>
<path d="M29.9992 40.8367H23.3333C23.1123 40.8367 22.9004 40.7489 22.7441 40.5926C22.5878 40.4364 22.5 40.2244 22.5 40.0034C22.5 39.7824 22.5878 39.5704 22.7441 39.4141C22.9004 39.2578 23.1123 39.17 23.3333 39.17H29.9992C30.2202 39.17 30.4321 39.2578 30.5884 39.4141C30.7447 39.5704 30.8325 39.7824 30.8325 40.0034C30.8325 40.2244 30.7447 40.4364 30.5884 40.5926C30.4321 40.7489 30.2202 40.8367 29.9992 40.8367Z" fill="#0A0909"/>
<path d="M42.1498 49.9839C42.1286 49.9839 42.1066 49.9831 42.0847 49.9815L31.6021 49.1677C31.493 49.1592 31.3866 49.1294 31.289 49.0798C31.1914 49.0303 31.1046 48.962 31.0334 48.8789C30.9622 48.7957 30.9081 48.6994 30.8741 48.5954C30.8402 48.4913 30.827 48.3816 30.8355 48.2725C30.8439 48.1634 30.8738 48.057 30.9233 47.9594C30.9729 47.8619 31.0412 47.775 31.1243 47.7038C31.2074 47.6326 31.3038 47.5785 31.4078 47.5445C31.5119 47.5106 31.6216 47.4975 31.7307 47.5059L42.2133 48.3197C42.4281 48.3362 42.6282 48.4352 42.7716 48.5961C42.915 48.7569 42.9905 48.967 42.9822 49.1824C42.974 49.3977 42.8827 49.6014 42.7275 49.7509C42.5723 49.9003 42.3652 49.9838 42.1498 49.9839Z" fill="#0A0909"/>
<path d="M61.9294 44.2173C61.7204 44.2171 61.519 44.1384 61.3653 43.9968C61.2116 43.8551 61.1167 43.6609 61.0995 43.4525C61.0823 43.2442 61.144 43.037 61.2724 42.8721C61.4008 42.7071 61.5865 42.5965 61.7927 42.562C62.0264 42.5229 62.2629 42.5033 62.4999 42.5034C62.7209 42.5034 62.9329 42.5912 63.0891 42.7475C63.2454 42.9038 63.3332 43.1157 63.3332 43.3368C63.3332 43.5578 63.2454 43.7697 63.0891 43.926C62.9329 44.0823 62.7209 44.1701 62.4999 44.1701C62.3551 44.17 62.2106 44.182 62.0678 44.2059C62.0221 44.2137 61.9758 44.2175 61.9294 44.2173Z" fill="#0A0909"/>
<path d="M42.4995 50.0032C42.3515 50.0034 42.2037 49.995 42.0568 49.978C41.948 49.9657 41.8428 49.9322 41.7471 49.8792C41.6513 49.8263 41.567 49.755 41.4988 49.6695C41.4306 49.5839 41.38 49.4858 41.3498 49.3806C41.3196 49.2755 41.3104 49.1654 41.3227 49.0567C41.3336 48.9475 41.3662 48.8415 41.4187 48.7451C41.4712 48.6486 41.5425 48.5637 41.6284 48.4953C41.7143 48.4269 41.813 48.3763 41.9187 48.3467C42.0244 48.317 42.135 48.3089 42.2439 48.3227C42.3288 48.3318 42.4141 48.3364 42.4995 48.3365C42.7205 48.3365 42.9324 48.4243 43.0887 48.5806C43.245 48.7369 43.3328 48.9488 43.3328 49.1699C43.3328 49.3909 43.245 49.6028 43.0887 49.7591C42.9324 49.9154 42.7205 50.0032 42.4995 50.0032Z" fill="#0A0909"/>
<path d="M20.8338 62.5025H14.1663C13.9453 62.5025 13.7334 62.4147 13.5771 62.2585C13.4208 62.1022 13.333 61.8902 13.333 61.6692C13.333 61.4482 13.4208 61.2362 13.5771 61.08C13.7334 60.9237 13.9453 60.8359 14.1663 60.8359H20.0005V38.3367H14.1663C13.9453 38.3367 13.7334 38.2489 13.5771 38.0926C13.4208 37.9364 13.333 37.7244 13.333 37.5034C13.333 37.2824 13.4208 37.0704 13.5771 36.9141C13.7334 36.7578 13.9453 36.67 14.1663 36.67H20.8338C20.9433 36.67 21.0517 36.6915 21.1528 36.7333C21.254 36.7752 21.3458 36.8366 21.4232 36.914C21.5006 36.9914 21.562 37.0833 21.6039 37.1844C21.6457 37.2855 21.6672 37.3939 21.6672 37.5034V61.6692C21.6672 61.7787 21.6457 61.8871 21.6039 61.9882C21.562 62.0893 21.5006 62.1812 21.4232 62.2586C21.3458 62.336 21.254 62.3974 21.1528 62.4392C21.0517 62.4811 20.9433 62.5026 20.8338 62.5025Z" fill="#0A0909"/>
<path d="M47.5094 37.5114C47.3999 37.5116 47.2915 37.49 47.1904 37.4481C47.0893 37.4062 46.9975 37.3448 46.9202 37.2673L34.4023 24.7624C34.3249 24.685 34.2635 24.5932 34.2216 24.4921C34.1798 24.391 34.1582 24.2826 34.1582 24.1732C34.1582 24.0638 34.1798 23.9554 34.2216 23.8543C34.2635 23.7532 34.3249 23.6614 34.4023 23.584C34.4796 23.5066 34.5715 23.4453 34.6726 23.4034C34.7737 23.3615 34.882 23.34 34.9915 23.34C35.1009 23.34 35.2092 23.3615 35.3103 23.4034C35.4114 23.4453 35.5033 23.5066 35.5806 23.584L48.0985 36.0889C48.2151 36.2054 48.2944 36.3539 48.3265 36.5155C48.3587 36.6772 48.3422 36.8447 48.2791 36.9969C48.2161 37.1492 48.1093 37.2793 47.9723 37.3709C47.8353 37.4625 47.6741 37.5114 47.5094 37.5114Z" fill="#0A0909"/>
<path d="M47.505 37.5114C47.3402 37.5114 47.1792 37.4625 47.0421 37.3709C46.9051 37.2794 46.7984 37.1492 46.7353 36.997C46.6722 36.8447 46.6557 36.6772 46.6879 36.5156C46.72 36.3539 46.7994 36.2055 46.9159 36.0889L59.4207 23.584C59.577 23.4278 59.7889 23.34 60.0099 23.34C60.2309 23.34 60.4428 23.4278 60.5991 23.584C60.7554 23.7403 60.8432 23.9522 60.8432 24.1732C60.8432 24.3942 60.7554 24.6061 60.5991 24.7624L48.0942 37.2673C48.0169 37.3448 47.9251 37.4063 47.824 37.4482C47.7229 37.4901 47.6145 37.5116 47.505 37.5114Z" fill="#0A0909"/>
<path d="M60.0094 25.0066H34.9915C34.7705 25.0066 34.5586 24.9188 34.4023 24.7626C34.246 24.6063 34.1582 24.3943 34.1582 24.1733C34.1582 23.9523 34.246 23.7403 34.4023 23.584C34.5586 23.4278 34.7705 23.34 34.9915 23.34H60.0094C60.2305 23.34 60.4424 23.4278 60.5987 23.584C60.755 23.7403 60.8428 23.9523 60.8428 24.1733C60.8428 24.3943 60.755 24.6063 60.5987 24.7626C60.4424 24.9188 60.2305 25.0066 60.0094 25.0066Z" fill="#0A0909"/>
<path d="M47.5098 37.5116C47.335 37.5116 47.1646 37.4566 47.0227 37.3543C46.8809 37.2521 46.7748 37.1078 46.7196 36.9419L42.5448 24.4273C42.4749 24.2177 42.491 23.9889 42.5898 23.7913C42.6885 23.5936 42.8617 23.4433 43.0713 23.3734C43.2809 23.3035 43.5097 23.3197 43.7073 23.4184C43.9049 23.5171 44.0553 23.6904 44.1252 23.8999L48.3 36.4146C48.3417 36.5398 48.353 36.6732 48.3331 36.8036C48.3131 36.9341 48.2625 37.058 48.1854 37.1651C48.1082 37.2722 48.0068 37.3594 47.8893 37.4197C47.7719 37.4799 47.6418 37.5114 47.5098 37.5116Z" fill="#0A0909"/>
<path d="M47.5093 37.5115C47.42 37.5114 47.3312 37.4971 47.2464 37.4692C47.0367 37.3994 46.8632 37.2492 46.7642 37.0516C46.6651 36.8539 46.6486 36.6251 46.7182 36.4153L50.8784 23.9006C50.9485 23.6913 51.0987 23.5184 51.2962 23.4197C51.4937 23.321 51.7222 23.3047 51.9317 23.3743C52.1411 23.4439 52.3144 23.5938 52.4136 23.791C52.5127 23.9882 52.5296 24.2167 52.4604 24.4264L48.3003 36.941C48.2449 37.107 48.1387 37.2514 47.9968 37.3538C47.8548 37.4562 47.6843 37.5113 47.5093 37.5115Z" fill="#0A0909"/>
<path d="M43.3355 24.9969C43.2027 24.9972 43.0718 24.9656 42.9537 24.9049C42.8356 24.8441 42.7338 24.756 42.6568 24.6478L38.4901 18.8145C38.4265 18.7255 38.3811 18.6248 38.3564 18.5182C38.3318 18.4116 38.3283 18.3012 38.3463 18.1933C38.3643 18.0854 38.4034 17.9821 38.4613 17.8893C38.5192 17.7964 38.5948 17.7159 38.6838 17.6524C38.7729 17.5888 38.8735 17.5433 38.9801 17.5187C39.0867 17.494 39.1971 17.4905 39.305 17.5085C39.4129 17.5265 39.5162 17.5656 39.6091 17.6235C39.7019 17.6814 39.7824 17.757 39.846 17.8461L44.0126 23.6794C44.1015 23.8039 44.1544 23.9505 44.1655 24.1031C44.1766 24.2557 44.1454 24.4084 44.0755 24.5445C44.0056 24.6805 43.8996 24.7947 43.769 24.8746C43.6385 24.9544 43.4885 24.9967 43.3355 24.9969Z" fill="#0A0909"/>
<path d="M35.0001 24.9969C34.8471 24.9967 34.6971 24.9544 34.5666 24.8746C34.4361 24.7947 34.33 24.6805 34.2601 24.5445C34.1902 24.4084 34.1591 24.2557 34.1702 24.1031C34.1813 23.9505 34.2341 23.8039 34.323 23.6794L38.4897 17.8461C38.5533 17.757 38.6338 17.6814 38.7266 17.6235C38.8194 17.5656 38.9227 17.5265 39.0306 17.5085C39.1385 17.4905 39.2489 17.494 39.3555 17.5187C39.4621 17.5433 39.5628 17.5888 39.6518 17.6524C39.7408 17.7159 39.8165 17.7964 39.8744 17.8893C39.9323 17.9821 39.9714 18.0854 39.9893 18.1933C40.0073 18.3012 40.0039 18.4116 39.9792 18.5182C39.9545 18.6248 39.9091 18.7255 39.8455 18.8145L35.6788 24.6478C35.6018 24.756 35.5 24.8441 35.3819 24.9049C35.2638 24.9656 35.1329 24.9972 35.0001 24.9969Z" fill="#0A0909"/>
<path d="M51.6705 24.9969C51.5377 24.9972 51.4068 24.9656 51.2887 24.9049C51.1706 24.8441 51.0688 24.756 50.9918 24.6478L46.8251 18.8145C46.6967 18.6347 46.6449 18.4113 46.6813 18.1933C46.7176 17.9754 46.839 17.7808 47.0188 17.6524C47.1986 17.5239 47.422 17.4722 47.64 17.5085C47.8579 17.5449 48.0525 17.6663 48.1809 17.8461L52.3476 23.6794C52.4365 23.8039 52.4894 23.9505 52.5004 24.1031C52.5115 24.2557 52.4804 24.4084 52.4105 24.5445C52.3406 24.6805 52.2345 24.7947 52.104 24.8746C51.9735 24.9544 51.8235 24.9967 51.6705 24.9969Z" fill="#0A0909"/>
<path d="M43.336 24.9969C43.183 24.9967 43.0331 24.9544 42.9025 24.8746C42.772 24.7947 42.666 24.6805 42.5961 24.5445C42.5261 24.4084 42.495 24.2557 42.5061 24.1031C42.5172 23.9505 42.5701 23.8039 42.6589 23.6794L46.8256 17.8461C46.8892 17.757 46.9697 17.6814 47.0625 17.6235C47.1553 17.5656 47.2586 17.5265 47.3666 17.5085C47.4745 17.4905 47.5849 17.494 47.6915 17.5187C47.798 17.5433 47.8987 17.5888 47.9877 17.6524C48.0768 17.7159 48.1524 17.7964 48.2103 17.8893C48.2682 17.9821 48.3073 18.0854 48.3253 18.1933C48.3433 18.3012 48.3398 18.4116 48.3151 18.5182C48.2905 18.6248 48.245 18.7255 48.1814 18.8145L44.0148 24.6478C43.9377 24.756 43.8359 24.8441 43.7178 24.9049C43.5997 24.9656 43.4688 24.9972 43.336 24.9969Z" fill="#0A0909"/>
<path d="M60.0054 24.9969C59.8727 24.9972 59.7417 24.9656 59.6237 24.9049C59.5056 24.8441 59.4038 24.756 59.3267 24.6478L55.1601 18.8145C55.0316 18.6347 54.9799 18.4113 55.0162 18.1933C55.0525 17.9754 55.174 17.7808 55.3538 17.6524C55.5336 17.5239 55.757 17.4722 55.9749 17.5085C56.1929 17.5449 56.3875 17.6663 56.5159 17.8461L60.6826 23.6794C60.7714 23.8039 60.8243 23.9505 60.8354 24.1031C60.8465 24.2557 60.8154 24.4084 60.7454 24.5445C60.6755 24.6805 60.5695 24.7947 60.439 24.8745C60.3084 24.9544 60.1584 24.9967 60.0054 24.9969Z" fill="#0A0909"/>
<path d="M51.67 24.9969C51.517 24.9967 51.367 24.9544 51.2365 24.8746C51.106 24.7947 51 24.6805 50.93 24.5445C50.8601 24.4084 50.829 24.2557 50.8401 24.1031C50.8512 23.9505 50.9041 23.8039 50.9929 23.6794L55.1596 17.8461C55.288 17.6663 55.4826 17.5449 55.7005 17.5085C55.9185 17.4722 56.1419 17.5239 56.3217 17.6524C56.5015 17.7808 56.6229 17.9754 56.6593 18.1933C56.6956 18.4113 56.6439 18.6347 56.5154 18.8145L52.3488 24.6478C52.2717 24.756 52.1699 24.8441 52.0518 24.9049C51.9337 24.9656 51.8028 24.9972 51.67 24.9969Z" fill="#0A0909"/>
<path d="M55.8382 19.1635H39.1683C38.9473 19.1635 38.7353 19.0757 38.579 18.9194C38.4228 18.7631 38.335 18.5512 38.335 18.3302C38.335 18.1091 38.4228 17.8972 38.579 17.7409C38.7353 17.5846 38.9473 17.4968 39.1683 17.4968H55.8382C56.0592 17.4968 56.2712 17.5846 56.4274 17.7409C56.5837 17.8972 56.6715 18.1091 56.6715 18.3302C56.6715 18.5512 56.5837 18.7631 56.4274 18.9194C56.2712 19.0757 56.0592 19.1635 55.8382 19.1635Z" fill="#0A0909"/>
<path d="M58.3337 40.8374C57.5096 40.8374 56.704 40.593 56.0188 40.1352C55.3336 39.6773 54.7995 39.0266 54.4842 38.2652C54.1688 37.5039 54.0863 36.6661 54.2471 35.8578C54.4078 35.0496 54.8047 34.3071 55.3874 33.7244C55.9701 33.1417 56.7125 32.7449 57.5208 32.5841C58.329 32.4233 59.1668 32.5058 59.9282 32.8212C60.6895 33.1366 61.3403 33.6706 61.7981 34.3558C62.256 35.041 62.5003 35.8466 62.5003 36.6707C62.499 37.7754 62.0596 38.8344 61.2785 39.6155C60.4974 40.3967 59.4383 40.8361 58.3337 40.8374ZM58.3337 34.1707C57.8392 34.1707 57.3559 34.3173 56.9447 34.592C56.5336 34.8667 56.2132 35.2572 56.024 35.714C55.8347 36.1708 55.7852 36.6735 55.8817 37.1584C55.9782 37.6434 56.2163 38.0888 56.5659 38.4385C56.9155 38.7881 57.361 39.0262 57.8459 39.1227C58.3309 39.2191 58.8336 39.1696 59.2904 38.9804C59.7472 38.7912 60.1376 38.4707 60.4123 38.0596C60.687 37.6485 60.8337 37.1652 60.8337 36.6707C60.8329 36.0079 60.5693 35.3724 60.1006 34.9037C59.6319 34.435 58.9965 34.1714 58.3337 34.1707Z" fill="#0A0909"/>
<path d="M58.3333 38.3374C58.2239 38.3374 58.1155 38.3159 58.0144 38.2741C57.9132 38.2322 57.8213 38.1708 57.7439 38.0934C57.6665 38.016 57.6052 37.9241 57.5633 37.823C57.5214 37.7219 57.4999 37.6135 57.5 37.504V35.8374C57.5 35.6163 57.5878 35.4044 57.7441 35.2481C57.9004 35.0918 58.1123 35.004 58.3333 35.004C58.5543 35.004 58.7663 35.0918 58.9226 35.2481C59.0789 35.4044 59.1667 35.6163 59.1667 35.8374V37.504C59.1667 37.6135 59.1452 37.7219 59.1034 37.823C59.0615 37.9241 59.0001 38.016 58.9227 38.0934C58.8453 38.1708 58.7534 38.2322 58.6523 38.2741C58.5512 38.3159 58.4428 38.3374 58.3333 38.3374Z" fill="#0A0909"/>
<path d="M30.834 36.6707C29.8451 36.6707 28.8784 36.3774 28.0561 35.828C27.2339 35.2786 26.593 34.4977 26.2146 33.5841C25.8362 32.6704 25.7371 31.6651 25.9301 30.6952C26.123 29.7253 26.5992 28.8344 27.2985 28.1351C27.9977 27.4359 28.8886 26.9597 29.8585 26.7667C30.8284 26.5738 31.8338 26.6728 32.7474 27.0513C33.661 27.4297 34.4419 28.0706 34.9913 28.8928C35.5407 29.7151 35.834 30.6818 35.834 31.6707C35.8325 32.9963 35.3053 34.2672 34.3679 35.2046C33.4306 36.142 32.1596 36.6692 30.834 36.6707ZM30.834 28.3373C30.1747 28.3373 29.5303 28.5328 28.9821 28.8991C28.4339 29.2654 28.0067 29.786 27.7544 30.395C27.5021 31.0041 27.4361 31.6744 27.5647 32.321C27.6933 32.9676 28.0108 33.5615 28.477 34.0277C28.9431 34.4939 29.5371 34.8113 30.1837 34.9399C30.8303 35.0686 31.5005 35.0025 32.1096 34.7503C32.7187 34.498 33.2393 34.0707 33.6056 33.5226C33.9718 32.9744 34.1673 32.3299 34.1673 31.6707C34.1664 30.7869 33.815 29.9395 33.19 29.3146C32.5651 28.6897 31.7178 28.3382 30.834 28.3373Z" fill="#0A0909"/>
<path d="M30.8333 33.3374C30.7239 33.3374 30.6155 33.3159 30.5144 33.2741C30.4132 33.2322 30.3213 33.1708 30.2439 33.0934C30.1665 33.016 30.1052 32.9241 30.0633 32.823C30.0214 32.7219 29.9999 32.6135 30 32.504V30.8374C30 30.6163 30.0878 30.4044 30.2441 30.2481C30.4004 30.0918 30.6123 30.004 30.8333 30.004C31.0543 30.004 31.2663 30.0918 31.4226 30.2481C31.5789 30.4044 31.6667 30.6163 31.6667 30.8374V32.504C31.6667 32.6135 31.6452 32.7219 31.6034 32.823C31.5615 32.9241 31.5001 33.016 31.4227 33.0934C31.3453 33.1708 31.2534 33.2322 31.1523 33.2741C31.0512 33.3159 30.9428 33.3374 30.8333 33.3374Z" fill="#0A0909"/>
<path d="M63.334 31.6707C62.8395 31.6707 62.3562 31.524 61.9451 31.2493C61.5339 30.9746 61.2135 30.5842 61.0243 30.1274C60.8351 29.6705 60.7856 29.1679 60.882 28.6829C60.9785 28.198 61.2166 27.7525 61.5662 27.4029C61.9159 27.0533 62.3613 26.8152 62.8463 26.7187C63.3312 26.6222 63.8339 26.6717 64.2907 26.861C64.7475 27.0502 65.138 27.3706 65.4127 27.7817C65.6874 28.1929 65.834 28.6762 65.834 29.1707C65.8333 29.8335 65.5696 30.4689 65.101 30.9376C64.6323 31.4063 63.9968 31.6699 63.334 31.6707ZM63.334 28.3373C63.1692 28.3373 63.0081 28.3862 62.871 28.4778C62.734 28.5693 62.6272 28.6995 62.5641 28.8518C62.501 29.004 62.4845 29.1716 62.5167 29.3332C62.5488 29.4949 62.6282 29.6434 62.7447 29.7599C62.8613 29.8765 63.0098 29.9558 63.1714 29.988C63.3331 30.0201 63.5006 30.0036 63.6529 29.9406C63.8052 29.8775 63.9353 29.7707 64.0269 29.6336C64.1184 29.4966 64.1673 29.3355 64.1673 29.1707C64.1672 28.9497 64.0793 28.7378 63.9231 28.5816C63.7668 28.4253 63.555 28.3375 63.334 28.3373Z" fill="#0A0909"/>
<path d="M50 43.3374C49.5055 43.3374 49.0222 43.1908 48.6111 42.9161C48.2 42.6414 47.8795 42.2509 47.6903 41.7941C47.5011 41.3373 47.4516 40.8346 47.548 40.3497C47.6445 39.8647 47.8826 39.4193 48.2322 39.0696C48.5819 38.72 49.0273 38.4819 49.5123 38.3854C49.9972 38.289 50.4999 38.3385 50.9567 38.5277C51.4135 38.7169 51.804 39.0374 52.0787 39.4485C52.3534 39.8596 52.5 40.3429 52.5 40.8374C52.4993 41.5002 52.2357 42.1357 51.767 42.6044C51.2983 43.0731 50.6628 43.3367 50 43.3374ZM50 40.0041C49.8352 40.0041 49.6741 40.0529 49.537 40.1445C49.4 40.2361 49.2932 40.3662 49.2301 40.5185C49.167 40.6708 49.1505 40.8383 49.1827 41C49.2148 41.1616 49.2942 41.3101 49.4107 41.4267C49.5273 41.5432 49.6758 41.6226 49.8374 41.6547C49.9991 41.6869 50.1666 41.6704 50.3189 41.6073C50.4712 41.5442 50.6013 41.4374 50.6929 41.3004C50.7845 41.1633 50.8333 41.0022 50.8333 40.8374C50.8332 40.6164 50.7453 40.4046 50.5891 40.2483C50.4328 40.0921 50.221 40.0042 50 40.0041Z" fill="#0A0909"/>
<path d="M39.1673 40.0041C38.508 40.0041 37.8636 39.8086 37.3154 39.4423C36.7673 39.076 36.34 38.5554 36.0877 37.9463C35.8354 37.3373 35.7694 36.667 35.898 36.0204C36.0267 35.3738 36.3441 34.7799 36.8103 34.3137C37.2765 33.8475 37.8704 33.5301 38.517 33.4015C39.1636 33.2728 39.8338 33.3388 40.4429 33.5911C41.052 33.8434 41.5726 34.2707 41.9389 34.8188C42.3052 35.367 42.5007 36.0115 42.5007 36.6707C42.4998 37.5545 42.1483 38.4019 41.5234 39.0268C40.8984 39.6517 40.0511 40.0032 39.1673 40.0041ZM39.1673 35.0041C38.8377 35.0041 38.5155 35.1018 38.2414 35.285C37.9673 35.4681 37.7537 35.7284 37.6275 36.0329C37.5014 36.3375 37.4684 36.6726 37.5327 36.9959C37.597 37.3192 37.7557 37.6162 37.9888 37.8492C38.2219 38.0823 38.5189 38.2411 38.8422 38.3054C39.1655 38.3697 39.5006 38.3367 39.8051 38.2105C40.1097 38.0844 40.37 37.8708 40.5531 37.5967C40.7362 37.3226 40.834 37.0004 40.834 36.6707C40.8334 36.2289 40.6576 35.8053 40.3452 35.4929C40.0328 35.1804 39.6092 35.0046 39.1673 35.0041Z" fill="#0A0909"/>
</g>
<defs>
<clipPath id="clip0_5456_31896">
<rect width="53.3333" height="53.3333" fill="white" transform="translate(13.333 13.3334)"/>
</clipPath>
</defs>
</svg>