<svg xmlns="http://www.w3.org/2000/svg" width="80" height="80" viewBox="0 0 80 80" fill="none">
<g clip-path="url(#clip0_5456_70681)">
<path d="M13.2663 61.5662C13.0177 61.5674 12.7787 61.4698 12.6021 61.2948C12.4254 61.1199 12.3254 60.8819 12.3242 60.6332C12.323 60.3846 12.4206 60.1457 12.5956 59.969C12.7705 59.7923 13.0085 59.6924 13.2572 59.6912H13.2663C13.5149 59.6912 13.7534 59.7899 13.9292 59.9657C14.105 60.1416 14.2038 60.38 14.2038 60.6287C14.2038 60.8773 14.105 61.1158 13.9292 61.2916C13.7534 61.4674 13.5149 61.5662 13.2663 61.5662Z" fill="#0A0909"/>
<path d="M66.6894 51.6894C66.4831 51.6896 66.2824 51.6217 66.1186 51.4963C65.9548 51.3708 65.837 51.1949 65.7833 50.9956C65.7297 50.7964 65.7433 50.585 65.8221 50.3943C65.9008 50.2036 66.0402 50.0442 66.2188 49.9408C66.7549 49.6311 67.1739 49.1531 67.4109 48.5811C67.6478 48.009 67.6893 47.3747 67.5291 46.7766C67.3689 46.1785 67.0158 45.65 66.5247 45.2729C66.0335 44.8959 65.4317 44.6914 64.8125 44.6912C64.5639 44.6912 64.3254 44.5924 64.1496 44.4166C63.9738 44.2408 63.875 44.0023 63.875 43.7537C63.875 43.505 63.9738 43.2666 64.1496 43.0907C64.3254 42.9149 64.5639 42.8162 64.8125 42.8162C65.8443 42.8163 66.8472 43.1568 67.6657 43.7848C68.4843 44.4129 69.0728 45.2935 69.3401 46.29C69.6073 47.2866 69.5384 48.3434 69.1439 49.2968C68.7494 50.2502 68.0514 51.0468 67.1581 51.5631C67.0158 51.646 66.8541 51.6896 66.6894 51.6894Z" fill="#0A0909"/>
<path d="M41.3762 65.3163C41.1672 65.3165 40.9642 65.247 40.7993 65.1187C40.6344 64.9904 40.5171 64.8107 40.466 64.6081C40.4149 64.4056 40.4329 64.1917 40.5172 64.0006C40.6015 63.8094 40.7472 63.6519 40.9312 63.553L66.2437 49.9244C66.3522 49.866 66.4711 49.8296 66.5936 49.8172C66.7161 49.8047 66.8399 49.8166 66.9579 49.852C67.0759 49.8874 67.1857 49.9458 67.2811 50.0237C67.3765 50.1016 67.4557 50.1975 67.514 50.306C67.5723 50.4144 67.6087 50.5334 67.6211 50.6559C67.6334 50.7785 67.6215 50.9022 67.586 51.0202C67.5505 51.1381 67.4921 51.2479 67.4142 51.3433C67.3363 51.4387 67.2403 51.5178 67.1318 51.576L41.8193 65.2046C41.6831 65.278 41.5308 65.3164 41.3762 65.3163Z" fill="#0A0909"/>
<path d="M41.3762 65.3163C41.3337 65.3163 41.2912 65.3135 41.249 65.3081L20.6249 62.4956C20.3787 62.4618 20.1559 62.3317 20.0055 62.1338C19.8552 61.9359 19.7895 61.6864 19.823 61.4401C19.8565 61.1939 19.9864 60.9709 20.1841 60.8204C20.3818 60.6698 20.6313 60.6039 20.8776 60.6371L41.5016 63.4496C41.7372 63.4815 41.9517 63.6018 42.102 63.7859C42.2523 63.9701 42.327 64.2044 42.311 64.4416C42.2951 64.6787 42.1897 64.9009 42.0162 65.0633C41.8426 65.2257 41.6139 65.3162 41.3762 65.3163Z" fill="#0A0909"/>
<path d="M20.7514 63.4393H17.9453C17.6967 63.4393 17.4582 63.3405 17.2824 63.1647C17.1066 62.9889 17.0078 62.7504 17.0078 62.5018C17.0078 62.2531 17.1066 62.0147 17.2824 61.8389C17.4582 61.6631 17.6967 61.5643 17.9453 61.5643H19.8139V40.0037H17.9453C17.6967 40.0037 17.4582 39.9049 17.2824 39.7291C17.1066 39.5533 17.0078 39.3148 17.0078 39.0662C17.0078 38.8175 17.1066 38.5791 17.2824 38.4033C17.4582 38.2274 17.6967 38.1287 17.9453 38.1287H20.7514C20.8746 38.1286 20.9965 38.1528 21.1103 38.1999C21.2241 38.247 21.3274 38.316 21.4145 38.4031C21.5016 38.4902 21.5706 38.5935 21.6177 38.7073C21.6648 38.8211 21.689 38.943 21.6889 39.0662V62.5018C21.689 62.6249 21.6648 62.7469 21.6177 62.8606C21.5706 62.9744 21.5016 63.0778 21.4145 63.1649C21.3274 63.2519 21.2241 63.321 21.1103 63.3681C20.9965 63.4152 20.8746 63.4394 20.7514 63.4393Z" fill="#0A0909"/>
<path d="M46.0613 47.5037C45.825 47.5034 45.5976 47.4139 45.4245 47.2532C45.2514 47.0924 45.1453 46.8722 45.1276 46.6366C45.1099 46.401 45.1819 46.1674 45.329 45.9825C45.4761 45.7977 45.6876 45.6752 45.9212 45.6397L64.0313 42.8821C64.1531 42.8633 64.2774 42.8686 64.3972 42.8979C64.5169 42.9272 64.6297 42.9798 64.729 43.0528C64.8284 43.1257 64.9124 43.2175 64.9762 43.323C65.04 43.4284 65.0824 43.5454 65.101 43.6673C65.1195 43.7891 65.1139 43.9135 65.0843 44.0331C65.0547 44.1528 65.0018 44.2654 64.9287 44.3646C64.8555 44.4638 64.7635 44.5476 64.6579 44.6112C64.5523 44.6747 64.4352 44.7169 64.3133 44.7351L46.2032 47.4927C46.1563 47.5 46.1088 47.5036 46.0613 47.5037Z" fill="#0A0909"/>
<path d="M42.3125 51.2536C42.0639 51.2536 41.8254 51.1548 41.6496 50.979C41.4738 50.8032 41.375 50.5647 41.375 50.3161C41.375 50.0674 41.4738 49.829 41.6496 49.6532C41.8254 49.4773 42.0639 49.3786 42.3125 49.3786C43.0164 49.3785 43.6947 49.1145 44.2134 48.6387C44.7322 48.1629 45.0537 47.51 45.1145 46.8087C45.1754 46.1074 44.9711 45.4089 44.542 44.8509C44.1129 44.2929 43.4902 43.9161 42.7968 43.7948C42.5518 43.7525 42.3336 43.6147 42.1903 43.4116C42.0469 43.2084 41.9901 42.9567 42.0324 42.7117C42.0746 42.4667 42.2124 42.2485 42.4156 42.1052C42.6187 41.9618 42.8704 41.905 43.1154 41.9472C44.2715 42.1483 45.3102 42.7757 46.0262 43.7054C46.7422 44.6351 47.0835 45.7996 46.9826 46.9687C46.8817 48.1378 46.3461 49.2266 45.4814 50.0199C44.6167 50.8133 43.486 51.2535 42.3125 51.2536Z" fill="#0A0909"/>
<path d="M42.9585 43.8087C42.898 43.8087 42.8376 43.8029 42.7782 43.7913L28.0711 40.9239C27.95 40.9006 27.8347 40.8536 27.7317 40.7857C27.6288 40.7178 27.5403 40.6303 27.4712 40.5281C27.4022 40.4259 27.354 40.3111 27.3294 40.1902C27.3048 40.0694 27.3043 39.9448 27.3279 39.8238C27.3515 39.7027 27.3988 39.5875 27.467 39.4848C27.5352 39.382 27.623 39.2938 27.7254 39.225C27.8277 39.1562 27.9427 39.1084 28.0636 39.0841C28.1845 39.0599 28.309 39.0597 28.43 39.0836L43.1371 41.9511C43.3656 41.9957 43.5694 42.1239 43.7087 42.3105C43.848 42.4972 43.9128 42.729 43.8905 42.9609C43.8682 43.1927 43.7605 43.4079 43.5882 43.5647C43.4159 43.7214 43.1914 43.8084 42.9585 43.8087Z" fill="#0A0909"/>
<path d="M28.25 40.9412H20.751C20.5023 40.9412 20.2639 40.8424 20.0881 40.6666C19.9122 40.4908 19.8135 40.2523 19.8135 40.0037C19.8135 39.755 19.9122 39.5166 20.0881 39.3407C20.2639 39.1649 20.5023 39.0662 20.751 39.0662H28.25C28.4987 39.0662 28.7371 39.1649 28.913 39.3407C29.0888 39.5166 29.1875 39.755 29.1875 40.0037C29.1875 40.2523 29.0888 40.4908 28.913 40.6666C28.7371 40.8424 28.4987 40.9412 28.25 40.9412Z" fill="#0A0909"/>
<path d="M41.9189 51.2317C41.8951 51.2317 41.8703 51.2308 41.8456 51.229L30.0527 50.3135C29.93 50.304 29.8103 50.2704 29.7005 50.2146C29.5907 50.1589 29.493 50.0821 29.4129 49.9885C29.3329 49.895 29.272 49.7866 29.2338 49.6696C29.1956 49.5526 29.1808 49.4291 29.1903 49.3064C29.1998 49.1836 29.2334 49.0639 29.2891 48.9542C29.3449 48.8444 29.4217 48.7467 29.5152 48.6666C29.6087 48.5865 29.7171 48.5256 29.8342 48.4874C29.9512 48.4492 30.0746 48.4345 30.1974 48.444L41.9903 49.3595C42.232 49.378 42.4571 49.4895 42.6184 49.6704C42.7797 49.8514 42.8646 50.0877 42.8554 50.33C42.8461 50.5722 42.7434 50.8014 42.5688 50.9696C42.3942 51.1377 42.1613 51.2316 41.9189 51.2317Z" fill="#0A0909"/>
<path d="M64.1702 44.7443C63.9351 44.7441 63.7085 44.6555 63.5356 44.4962C63.3627 44.3368 63.2559 44.1183 63.2366 43.8839C63.2172 43.6496 63.2867 43.4165 63.4311 43.2309C63.5756 43.0453 63.7845 42.9208 64.0164 42.8821C64.2793 42.8381 64.5454 42.8161 64.812 42.8162C65.0606 42.8162 65.2991 42.9149 65.4749 43.0907C65.6507 43.2666 65.7495 43.505 65.7495 43.7537C65.7495 44.0023 65.6507 44.2408 65.4749 44.4166C65.2991 44.5924 65.0606 44.6912 64.812 44.6912C64.6491 44.691 64.4865 44.7045 64.3259 44.7315C64.2745 44.7402 64.2224 44.7445 64.1702 44.7443Z" fill="#0A0909"/>
<path d="M42.3123 51.2537C42.1458 51.254 41.9795 51.2445 41.8142 51.2254C41.6919 51.2116 41.5735 51.1738 41.4658 51.1143C41.3581 51.0548 41.2632 50.9746 41.1865 50.8783C41.1098 50.7821 41.0529 50.6716 41.0189 50.5534C40.9849 50.4351 40.9745 50.3113 40.9884 50.189C41.0006 50.0661 41.0374 49.9468 41.0964 49.8384C41.1555 49.7299 41.2357 49.6343 41.3323 49.5573C41.4289 49.4804 41.54 49.4235 41.6589 49.3902C41.7778 49.3568 41.9022 49.3476 42.0248 49.3632C42.1203 49.3734 42.2162 49.3786 42.3123 49.3787C42.5609 49.3787 42.7994 49.4775 42.9752 49.6533C43.151 49.8291 43.2498 50.0676 43.2498 50.3162C43.2498 50.5649 43.151 50.8033 42.9752 50.9792C42.7994 51.155 42.5609 51.2537 42.3123 51.2537Z" fill="#0A0909"/>
<path d="M17.9384 65.3152H10.4375C10.1889 65.3152 9.9504 65.2165 9.77459 65.0406C9.59877 64.8648 9.5 64.6264 9.5 64.3777C9.5 64.1291 9.59877 63.8906 9.77459 63.7148C9.9504 63.539 10.1889 63.4402 10.4375 63.4402H17.0009V38.1287H10.4375C10.1889 38.1287 9.9504 38.0299 9.77459 37.8541C9.59877 37.6783 9.5 37.4398 9.5 37.1912C9.5 36.9425 9.59877 36.7041 9.77459 36.5283C9.9504 36.3524 10.1889 36.2537 10.4375 36.2537H17.9384C18.0616 36.2536 18.1835 36.2778 18.2973 36.3249C18.4111 36.372 18.5144 36.441 18.6015 36.5281C18.6886 36.6152 18.7576 36.7185 18.8047 36.8323C18.8518 36.9461 18.876 37.068 18.8759 37.1912V64.3777C18.876 64.5009 18.8518 64.6228 18.8047 64.7366C18.7576 64.8503 18.6886 64.9537 18.6015 65.0408C18.5144 65.1279 18.4111 65.1969 18.2973 65.244C18.1835 65.2911 18.0616 65.3153 17.9384 65.3152Z" fill="#0A0909"/>
<path d="M51.6875 41.875C50.7604 41.875 49.8541 41.6001 49.0833 41.085C48.3124 40.5699 47.7116 39.8379 47.3568 38.9813C47.002 38.1248 46.9092 37.1823 47.0901 36.273C47.2709 35.3637 47.7174 34.5285 48.3729 33.8729C49.0285 33.2174 49.8637 32.7709 50.773 32.5901C51.6823 32.4092 52.6248 32.502 53.4813 32.8568C54.3379 33.2116 55.0699 33.8124 55.585 34.5833C56.1001 35.3541 56.375 36.2604 56.375 37.1875C56.3735 38.4303 55.8792 39.6217 55.0005 40.5005C54.1217 41.3792 52.9303 41.8735 51.6875 41.875ZM51.6875 34.375C51.1312 34.375 50.5875 34.54 50.125 34.849C49.6624 35.158 49.302 35.5973 49.0891 36.1112C48.8762 36.6251 48.8205 37.1906 48.929 37.7362C49.0376 38.2818 49.3054 38.7829 49.6988 39.1762C50.0921 39.5696 50.5932 39.8374 51.1388 39.946C51.6844 40.0545 52.2499 39.9988 52.7638 39.7859C53.2777 39.573 53.717 39.2126 54.026 38.75C54.3351 38.2875 54.5 37.7438 54.5 37.1875C54.4992 36.4418 54.2026 35.7269 53.6753 35.1997C53.1481 34.6724 52.4332 34.3758 51.6875 34.375Z" fill="#0A0909"/>
<path d="M43.625 33.2499C42.5125 33.2499 41.4249 32.92 40.4999 32.3019C39.5749 31.6838 38.8539 30.8053 38.4282 29.7775C38.0024 28.7496 37.891 27.6186 38.1081 26.5275C38.3251 25.4364 38.8609 24.4341 39.6475 23.6474C40.4342 22.8607 41.4365 22.325 42.5276 22.108C43.6188 21.8909 44.7498 22.0023 45.7776 22.4281C46.8054 22.8538 47.6839 23.5748 48.302 24.4998C48.9201 25.4248 49.25 26.5124 49.25 27.6249C49.2484 29.1162 48.6552 30.546 47.6007 31.6006C46.5461 32.6551 45.1163 33.2483 43.625 33.2499ZM43.625 23.8749C42.8833 23.8749 42.1583 24.0948 41.5416 24.5069C40.9249 24.9189 40.4443 25.5046 40.1605 26.1898C39.8766 26.875 39.8024 27.629 39.9471 28.3565C40.0918 29.0839 40.4489 29.7521 40.9734 30.2765C41.4978 30.801 42.166 31.1581 42.8934 31.3028C43.6208 31.4475 44.3748 31.3733 45.0601 31.0894C45.7453 30.8056 46.331 30.325 46.743 29.7083C47.1551 29.0916 47.375 28.3666 47.375 27.6249C47.374 26.6306 46.9786 25.6774 46.2756 24.9743C45.5725 24.2713 44.6193 23.8759 43.625 23.8749Z" fill="#0A0909"/>
</g>
<defs>
<clipPath id="clip0_5456_70681">
<rect width="60" height="60" fill="white" transform="translate(9.5 10)"/>
</clipPath>
</defs>
</svg>