<svg xmlns="http://www.w3.org/2000/svg" width="41" height="40" viewBox="0 0 41 40" fill="none">
<path d="M35.5481 13.0043H22.9052C23.2589 12.8444 23.6231 12.6728 23.9904 12.4903C27.2848 10.8538 29.1144 9.18888 29.4281 7.54189C29.5779 6.75564 29.4547 5.56898 28.0167 4.38105C26.8301 3.40093 25.6186 3.1066 24.4157 3.5062C22.7597 4.05627 21.2401 5.94253 19.899 9.11268C19.587 9.85031 19.3224 10.5687 19.1063 11.2057C18.8903 10.5686 18.6257 9.85031 18.3136 9.11268C16.9724 5.94253 15.4529 4.05627 13.797 3.5062C12.594 3.10645 11.3826 3.401 10.196 4.38112C8.75797 5.56906 8.63465 6.75564 8.78454 7.54196C9.09835 9.18888 10.9279 10.8538 14.2223 12.4904C14.5895 12.6728 14.9538 12.8444 15.3075 13.0044H2.66452C2.26634 13.0044 1.94336 13.3273 1.94336 13.7256V20.3326C1.94336 20.7308 2.26627 21.0537 2.66452 21.0537H5.18778V39.2789C5.18778 39.6771 5.51069 40 5.90894 40H15.8029H22.4098H32.3038C32.7021 40 33.025 39.6771 33.025 39.2788V21.0537H35.5483C35.9464 21.0537 36.2694 20.7308 36.2694 20.3325V13.7255C36.2693 13.3273 35.9464 13.0043 35.5481 13.0043ZM3.38567 19.6114V14.4467H15.0817V19.6114H3.38567ZM15.0818 38.5577H6.63009V21.0537H15.0817V38.5577H15.0818ZM14.8496 11.1914C12.0701 9.80877 10.4193 8.41673 10.2013 7.27169C10.1597 7.05283 10.0329 6.38675 11.1147 5.49293C11.6921 5.01598 12.237 4.77972 12.7661 4.77972C12.9599 4.77972 13.1515 4.81145 13.3418 4.87461C15.4869 5.58667 17.2174 9.89664 18.0383 12.5759C17.1913 12.2533 16.026 11.7767 14.8496 11.1914ZM21.6887 38.5577H16.5241V14.4467H21.6887V38.5577ZM20.1736 12.5763C20.9932 9.89772 22.7224 5.58839 24.8703 4.8749C25.0608 4.81166 25.2526 4.77994 25.4466 4.77994C25.9756 4.77994 26.5208 5.01619 27.098 5.49307C28.1799 6.38675 28.053 7.05291 28.0114 7.27183C27.7934 8.4168 26.1426 9.80892 23.3629 11.1916C22.1864 11.777 21.0208 12.2538 20.1736 12.5763ZM31.5826 38.5577H23.131V21.0537H31.5826V38.5577ZM34.827 19.6114H23.1309V14.4467H34.827V19.6114Z" fill="#292929"/>
<path d="M28.7568 29.3678C27.8287 29.3678 27.8272 30.81 28.7568 30.81C29.6848 30.81 29.6863 29.3678 28.7568 29.3678Z" fill="#292929"/>
<path d="M28.7568 31.6754C28.3586 31.6754 28.0356 31.9983 28.0356 32.3966V36.8435C28.0356 37.2418 28.3586 37.5647 28.7568 37.5647C29.1551 37.5647 29.478 37.2419 29.478 36.8435V32.3966C29.478 31.9983 29.1551 31.6754 28.7568 31.6754Z" fill="#292929"/>
</svg>